<?xml version="1.0" encoding="UTF-8" standalone="no"?>
<svg
   id="Layer_1"
   data-name="Layer 1"
   viewBox="0 0 256 324"
   version="1.1"
   sodipodi:docname="logo-transaprent.svg"
   width="256"
   height="324"
   inkscape:version="1.2.2 (b0a8486541, 2022-12-01)"
   xmlns:inkscape="http://www.inkscape.org/namespaces/inkscape"
   xmlns:sodipodi="http://sodipodi.sourceforge.net/DTD/sodipodi-0.dtd"
   xmlns:xlink="http://www.w3.org/1999/xlink"
   xmlns="http://www.w3.org/2000/svg"
   xmlns:svg="http://www.w3.org/2000/svg">
  <sodipodi:namedview
     id="namedview195"
     pagecolor="#505050"
     bordercolor="#eeeeee"
     borderopacity="1"
     inkscape:showpageshadow="0"
     inkscape:pageopacity="0"
     inkscape:pagecheckerboard="0"
     inkscape:deskcolor="#505050"
     showgrid="false"
     inkscape:zoom="2.5191891"
     inkscape:cx="128.81129"
     inkscape:cy="183.7893"
     inkscape:window-width="1904"
     inkscape:window-height="995"
     inkscape:window-x="26"
     inkscape:window-y="23"
     inkscape:window-maximized="0"
     inkscape:current-layer="Layer_1" />
  <defs
     id="defs164">
    <linearGradient
       id="linearGradient902"
       x1="33.91"
       y1="33.939999"
       x2="121.21"
       y2="121.23"
       gradientUnits="userSpaceOnUse">
      <stop
         offset="0"
         stop-color="#fff"
         stop-opacity="0.1"
         id="stop894"
         style="stop-color:#0e0e0e;stop-opacity:0.1;" />
      <stop
         offset="0.14"
         stop-color="#c3c3c3"
         stop-opacity="0.08"
         id="stop896" />
      <stop
         offset="0.61"
         stop-color="#323232"
         stop-opacity="0.02"
         id="stop898" />
      <stop
         offset="1"
         stop-opacity="0"
         id="stop900" />
    </linearGradient>
    <style
       id="style152">.cls-1,.cls-8,.cls-9{opacity:0.2;}.cls-2{fill:#18ffff;}.cls-3{fill:#006064;}.cls-4,.cls-9{fill:#fff;}.cls-5{fill:#e040fb;}.cls-6{fill:url(#linear-gradient);}.cls-7{fill:url(#linear-gradient-2);}.cls-8{fill:#4a148c;}</style>
    <linearGradient
       id="linear-gradient"
       x1="33.91"
       y1="33.939999"
       x2="121.21"
       y2="121.23"
       gradientUnits="userSpaceOnUse">
      <stop
         offset="0"
         stop-color="#fff"
         stop-opacity="0.1"
         id="stop154" />
      <stop
         offset="0.14"
         stop-color="#c3c3c3"
         stop-opacity="0.08"
         id="stop156" />
      <stop
         offset="0.61"
         stop-color="#323232"
         stop-opacity="0.02"
         id="stop158" />
      <stop
         offset="1"
         stop-opacity="0"
         id="stop160" />
    </linearGradient>
    <linearGradient
       id="linear-gradient-2"
       x1="103.66"
       y1="99.199997"
       x2="160.23"
       y2="155.77"
       xlink:href="#linear-gradient"
       gradientTransform="translate(30.999994,1.3489951)" />
  </defs>
  <path
     class="cls-2"
     d="M 208.68,62.659142 A 88.51,88.51 0 1 0 91.869998,178.95914 a 3.85,3.85 0 0 0 5.130004,-5.06 A 80.83,80.83 0 0 1 203.6,67.709142 a 3.84,3.84 0 0 0 5.08,-5 z"
     id="path168"
     style="fill:none" />
  <g
     class="cls-1"
     id="g174"
     transform="translate(30.999998,1.3491422)"
     style="fill:#000000;fill-opacity:1">
    <path
       class="cls-3"
       d="m 65.13,175.81 a 3.81,3.81 0 0 1 -4.26,0.8 A 88.65,88.65 0 0 1 8,95.92 c 0,0.19 0,0.39 0,0.59 a 88.65,88.65 0 0 0 52.87,81.1 3.84,3.84 0 0 0 5.35,-4 3.77,3.77 0 0 1 -1.09,2.2 z"
       id="path170"
       style="fill:#000000;fill-opacity:1" />
    <path
       class="cls-3"
       d="m 176.87,64.57 a 3.84,3.84 0 0 1 -4.27,0.79 80.8,80.8 0 0 0 -113.29,74.05 c 0,0.17 0,0.34 0,0.51 a 80.79,80.79 0 0 1 113.29,-73.56 3.84,3.84 0 0 0 5.36,-4 3.86,3.86 0 0 1 -1.09,2.21 z"
       id="path172"
       style="fill:#000000;fill-opacity:1" />
  </g>
  <g
     class="cls-1"
     id="g180"
     transform="translate(30.999998,1.3491422)">
    <path
       class="cls-4"
       d="m 96.48,8.94 a 88.47,88.47 0 0 1 81.21,53.37 3.69,3.69 0 0 1 0.27,1 3.78,3.78 0 0 0 -0.27,-2 A 88.48,88.48 0 0 0 8,96.51 c 0,0.14 0,0.27 0,0.41 A 88.62,88.62 0 0 1 96.48,8.94 Z"
       id="path176" />
    <path
       class="cls-4"
       d="m 59.33,140.92 c 0,0.16 0,0.33 0,0.49 a 80.42,80.42 0 0 0 6.67,32.14 4.07,4.07 0 0 1 0.28,1 3.92,3.92 0 0 0 -0.28,-2 80.15,80.15 0 0 1 -6.67,-31.63 z"
       id="path178" />
  </g>
  <circle
     class="cls-5"
     cx="162.93999"
     cy="128.82915"
     r="40"
     id="circle184"
     style="fill:none" />
  <path
     class="cls-8"
     d="m 162.94,167.82914 a 40,40 0 0 1 -39.94,-39.48 c 0,0.17 0,0.34 0,0.5 a 40,40 0 0 0 80,0 c 0,-0.16 0,-0.33 0,-0.5 a 40,40 0 0 1 -40.06,39.48 z"
     id="path190"
     style="fill:#000000;fill-opacity:1" />
  <path
     class="cls-9"
     d="m 162.94,89.829142 a 40,40 0 0 1 40,39.499998 c 0,-0.16 0,-0.33 0,-0.5 a 40,40 0 0 0 -80,0 c 0,0.17 0,0.34 0,0.5 a 40,40 0 0 1 40,-39.499998 z"
     id="path192" />
  <g
     id="path1258"
     style="font-weight:500;font-size:87.3474px;font-family:'Fira Sans';-inkscape-font-specification:'Fira Sans Medium';letter-spacing:6.87861px;fill:#dd40f7;fill-opacity:1;stroke:#000000;stroke-width:7.94067;stroke-linejoin:round"
     transform="scale(1.0133797,0.98679697)" />
  <g
     id="path1260"
     style="font-weight:500;font-size:87.3474px;font-family:'Fira Sans';-inkscape-font-specification:'Fira Sans Medium';letter-spacing:6.87861px;fill:#dd40f7;fill-opacity:1;stroke:#000000;stroke-width:7.94067;stroke-linejoin:round"
     transform="scale(1.0133797,0.98679697)" />
  <g
     id="path1262"
     style="font-weight:500;font-size:87.3474px;font-family:'Fira Sans';-inkscape-font-specification:'Fira Sans Medium';letter-spacing:6.87861px;fill:#dd40f7;fill-opacity:1;stroke:#000000;stroke-width:7.94067;stroke-linejoin:round"
     transform="scale(1.0133797,0.98679697)" />
  <g
     id="path1264"
     style="font-weight:500;font-size:87.3474px;font-family:'Fira Sans';-inkscape-font-specification:'Fira Sans Medium';letter-spacing:6.87861px;fill:#dd40f7;fill-opacity:1;stroke:#000000;stroke-width:7.94067;stroke-linejoin:round"
     transform="scale(1.0133797,0.98679697)" />
  <path
     id="path3037"
     style="color:#000000;font-weight:500;font-size:87.3474px;font-family:'Fira Sans';-inkscape-font-specification:'Fira Sans Medium';letter-spacing:6.87861px;fill:none;fill-opacity:1;stroke:none;stroke-width:7.94067;stroke-linejoin:miter;-inkscape-stroke:none"
     d="m 15.044728,225.969 a 4.0238592,3.9183063 0 0 0 -4.025391,3.91797 v 50.42187 c 0,3.52448 -0.371315,5.60455 -1.1269532,6.89258 -0.755638,1.28803 -2.076954,2.43165 -5.59961,3.76563 a 4.0238592,3.9183063 0 0 0 -2.3164059,5.0039 l 3.0976559,8.18946 a 4.0238592,3.9183063 0 0 0 5.0175792,2.37304 c 5.34022,-1.68777 10.526525,-3.95164 14.472656,-8.08398 3.946131,-4.13235 6.277344,-10.04844 6.277344,-17.70899 V 229.88697 A 4.0238592,3.9183063 0 0 0 26.818165,225.969 Z m 34.5,0 a 4.0238592,3.9183063 0 0 0 -4.011719,3.60547 l -4.867187,59.56055 a 4.0238592,3.9183063 0 0 0 4.009765,4.22851 h 11.332031 a 4.0238592,3.9183063 0 0 0 4.015626,-3.68359 l 1.33789,-21.86133 4.480469,16.18164 a 4.0238592,3.9183063 0 0 0 3.882812,2.90039 h 11.066407 a 4.0238592,3.9183063 0 0 0 3.90039,-2.95312 l 4.222656,-16.19141 1.404297,21.93555 a 4.0238592,3.9183063 0 0 0 4.015628,3.67187 h 11.417957 a 4.0238592,3.9183063 0 0 0 4.01172,-4.22266 l -4.77929,-59.56054 A 4.0238592,3.9183063 0 0 0 100.97246,225.969 H 85.747853 a 4.0238592,3.9183063 0 0 0 -3.914063,3.00391 l -6.46875,26.28515 -6.873046,-26.33593 A 4.0238592,3.9183063 0 0 0 64.593556,225.969 Z m 85.837882,0 a 4.0238592,3.9183063 0 0 0 -3.84179,2.75195 l -19.0293,59.56055 a 4.0238592,3.9183063 0 0 0 3.8418,5.08203 h 12.12695 a 4.0238592,3.9183063 0 0 0 3.88476,-2.90039 l 3.00391,-10.89062 h 14.09961 l 3.00781,10.89062 a 4.0238592,3.9183063 0 0 0 3.88477,2.90039 h 12.39258 a 4.0238592,3.9183063 0 0 0 3.84375,-5.07617 L 153.6541,228.72681 a 4.0238592,3.9183063 0 0 0 -3.8418,-2.75781 z m 47.15625,0 a 4.0238592,3.9183063 0 0 0 -4.02148,3.91602 v 59.56054 a 4.0238592,3.9183063 0 0 0 4.02148,3.91797 h 11.68555 a 4.0238592,3.9183063 0 0 0 4.02148,-3.91797 v -59.56054 a 4.0238592,3.9183063 0 0 0 -4.02148,-3.91602 z m 32.99414,0 a 4.0238592,3.9183063 0 0 0 -4.02148,3.91602 v 59.56054 a 4.0238592,3.9183063 0 0 0 4.02148,3.91797 h 34.87696 a 4.0238592,3.9183063 0 0 0 3.98437,-3.3789 l 1.32813,-9.3086 a 4.0238592,3.9183063 0 0 0 -3.98438,-4.45703 h -20.49609 v -46.33398 a 4.0238592,3.9183063 0 0 0 -4.02344,-3.91602 z m -73.1582,27.82813 2.55273,9.32226 h -5.10351 z" />
  <path
     id="path3037-3"
     style="color:#000000;font-weight:500;font-size:87.3474px;font-family:'Fira Sans';-inkscape-font-specification:'Fira Sans Medium';letter-spacing:6.87861px;fill:#000000;fill-opacity:0.20392199;stroke:none;stroke-width:7.94067;stroke-linejoin:miter;-inkscape-stroke:none"
     d="m 142.375,251.79688 -2.55078,9.32226 h 0.54687 l 2.00391,-7.32226 2.00586,7.32226 h 0.54687 z m -53.460938,13.95898 -4.222656,16.19141 a 4.0238592,3.9183063 0 0 1 -3.90039,2.95312 H 69.724609 A 4.0238592,3.9183063 0 0 1 65.841797,282 l -4.480469,-16.18164 -1.33789,21.86133 a 4.0238592,3.9183063 0 0 1 -4.015626,3.68359 H 44.675781 a 4.0238592,3.9183063 0 0 1 -3.892578,-3.6543 l -0.117187,1.42579 a 4.0238592,3.9183063 0 0 0 4.009765,4.22851 h 11.332031 a 4.0238592,3.9183063 0 0 0 4.015626,-3.68359 L 61.361328,267.81836 65.841797,284 a 4.0238592,3.9183063 0 0 0 3.882812,2.90039 h 11.066407 a 4.0238592,3.9183063 0 0 0 3.90039,-2.95312 l 4.222656,-16.19141 1.404297,21.93555 a 4.0238592,3.9183063 0 0 0 4.015625,3.67187 h 11.417966 a 4.0238592,3.9183063 0 0 0 4.01172,-4.22266 l -0.0762,-0.94726 a 4.0238592,3.9183063 0 0 1 -3.93555,3.16992 H 94.333984 a 4.0238592,3.9183063 0 0 1 -4.015625,-3.67187 z m 46.455078,11.81641 -3.00391,10.89062 a 4.0238592,3.9183063 0 0 1 -3.88476,2.90039 h -12.12695 a 4.0238592,3.9183063 0 0 1 -3.82227,-3.14648 l -0.0195,0.0645 a 4.0238592,3.9183063 0 0 0 3.8418,5.08203 h 12.12695 a 4.0238592,3.9183063 0 0 0 3.88476,-2.90039 l 3.00391,-10.89062 h 14.09961 l 3.00781,10.89062 a 4.0238592,3.9183063 0 0 0 3.88477,2.90039 h 12.39258 a 4.0238592,3.9183063 0 0 0 3.87304,-4.9043 4.0238592,3.9183063 0 0 1 -3.87304,2.9043 h -12.39258 a 4.0238592,3.9183063 0 0 1 -3.88477,-2.90039 l -3.00781,-10.89062 z m -104.527343,1.16796 c 0,7.66055 -2.331217,13.57664 -6.277344,17.70899 -3.946127,4.13233 -9.132441,6.39621 -14.472656,8.08398 A 4.0238592,3.9183063 0 0 1 5.0742188,302.16016 L 1.9765625,293.9707 a 4.0238592,3.9183063 0 0 1 -0.033203,-0.34179 4.0238592,3.9183063 0 0 0 0.033203,2.34179 l 3.0976563,8.18946 a 4.0238592,3.9183063 0 0 0 5.0175782,2.37304 c 5.340215,-1.68777 10.526529,-3.95165 14.472656,-8.08398 3.946127,-4.13235 6.277344,-10.04844 6.277344,-17.70899 z m 224.792973,0.55079 -1.24024,8.69336 a 4.0238592,3.9183063 0 0 1 -3.98437,3.3789 H 215.5332 a 4.0238592,3.9183063 0 0 1 -4.02148,-3.91797 v 2 a 4.0238592,3.9183063 0 0 0 4.02148,3.91797 h 34.87696 a 4.0238592,3.9183063 0 0 0 3.98437,-3.3789 l 1.32813,-9.3086 a 4.0238592,3.9183063 0 0 0 -0.0879,-1.38476 z m -77.11719,8.15429 v 2 a 4.0238592,3.9183063 0 0 0 4.02148,3.91797 h 11.68555 a 4.0238592,3.9183063 0 0 0 4.02148,-3.91797 v -2 a 4.0238592,3.9183063 0 0 1 -4.02148,3.91797 h -11.68555 a 4.0238592,3.9183063 0 0 1 -4.02148,-3.91797 z" />
  <g
     id="path1258-3"
     style="font-weight:500;font-size:87.3474px;font-family:'Fira Sans';-inkscape-font-specification:'Fira Sans Medium';letter-spacing:6.87861px;fill:#dd40f7;fill-opacity:1;stroke:#000000;stroke-width:7.94067;stroke-linejoin:round"
     transform="matrix(1.0133797,0,0,0.98679697,-3.6247644e-4,-1.9997991)" />
  <g
     id="path1260-9"
     style="font-weight:500;font-size:87.3474px;font-family:'Fira Sans';-inkscape-font-specification:'Fira Sans Medium';letter-spacing:6.87861px;fill:#dd40f7;fill-opacity:1;stroke:#000000;stroke-width:7.94067;stroke-linejoin:round"
     transform="matrix(1.0133797,0,0,0.98679697,-3.6247644e-4,-1.9997991)" />
  <g
     id="path1262-4"
     style="font-weight:500;font-size:87.3474px;font-family:'Fira Sans';-inkscape-font-specification:'Fira Sans Medium';letter-spacing:6.87861px;fill:#dd40f7;fill-opacity:1;stroke:#000000;stroke-width:7.94067;stroke-linejoin:round"
     transform="matrix(1.0133797,0,0,0.98679697,-3.6247644e-4,-1.9997991)" />
  <g
     id="path1264-8"
     style="font-weight:500;font-size:87.3474px;font-family:'Fira Sans';-inkscape-font-specification:'Fira Sans Medium';letter-spacing:6.87861px;fill:#dd40f7;fill-opacity:1;stroke:#000000;stroke-width:7.94067;stroke-linejoin:round"
     transform="matrix(1.0133797,0,0,0.98679697,-3.6247644e-4,-1.9997991)" />
  <path
     id="path3034"
     style="color:#000000;font-weight:500;font-size:87.3474px;font-family:'Fira Sans';-inkscape-font-specification:'Fira Sans Medium';letter-spacing:6.87861px;fill:#f0f0f0;fill-opacity:0.262745;stroke:none;stroke-width:7.94067;stroke-linejoin:miter;-inkscape-stroke:none"
     d="m 15.044922,223.96875 a 4.0238592,3.9183063 0 0 0 -4.025391,3.91797 v 2 a 4.0238592,3.9183063 0 0 1 4.025391,-3.91797 h 11.773437 a 4.0238592,3.9183063 0 0 1 4.023438,3.91797 v -2 a 4.0238592,3.9183063 0 0 0 -4.023438,-3.91797 z m 34.5,0 a 4.0238592,3.9183063 0 0 0 -4.011719,3.60547 l -4.867187,59.56055 a 4.0238592,3.9183063 0 0 0 0.117187,0.57226 l 4.75,-58.13281 a 4.0238592,3.9183063 0 0 1 4.011719,-3.60547 h 15.046875 a 4.0238592,3.9183063 0 0 1 3.900391,2.95313 l 6.873046,26.33593 6.46875,-26.2832 a 4.0238592,3.9183063 0 0 1 3.91211,-3.00586 H 100.9707 a 4.0238592,3.9183063 0 0 1 4.01368,3.61133 l 4.70312,58.61328 a 4.0238592,3.9183063 0 0 0 0.0762,-1.05274 l -4.77929,-59.56054 a 4.0238592,3.9183063 0 0 0 -4.01368,-3.61133 H 85.746094 a 4.0238592,3.9183063 0 0 0 -3.91211,3.00586 l -6.46875,26.2832 -6.873046,-26.33593 a 4.0238592,3.9183063 0 0 0 -3.900391,-2.95313 z m 85.837888,0 a 4.0238592,3.9183063 0 0 0 -3.84179,2.75195 l -19.03125,59.56055 a 4.0238592,3.9183063 0 0 0 0.0195,1.93555 l 19.01172,-59.4961 a 4.0238592,3.9183063 0 0 1 3.84179,-2.75195 h 14.42969 a 4.0238592,3.9183063 0 0 1 3.8418,2.75781 l 18.94336,59.56055 a 4.0238592,3.9183063 0 0 1 0.0293,0.17187 4.0238592,3.9183063 0 0 0 -0.0293,-2.17187 L 153.6543,226.72656 a 4.0238592,3.9183063 0 0 0 -3.8418,-2.75781 z m 47.15625,0 a 4.0238592,3.9183063 0 0 0 -4.02148,3.91602 v 2 a 4.0238592,3.9183063 0 0 1 4.02148,-3.91602 h 11.68555 a 4.0238592,3.9183063 0 0 1 4.02148,3.91602 v -2 a 4.0238592,3.9183063 0 0 0 -4.02148,-3.91602 z m 32.99414,0 a 4.0238592,3.9183063 0 0 0 -4.02148,3.91602 v 2 a 4.0238592,3.9183063 0 0 1 4.02148,-3.91602 h 11.68555 a 4.0238592,3.9183063 0 0 1 4.02344,3.91602 v -2 a 4.0238592,3.9183063 0 0 0 -4.02344,-3.91602 z m -75.16211,37.15039 -0.54687,2 h 5.10351 l -0.54687,-2 z m 90.8711,13.09961 v 2 h 20.49609 a 4.0238592,3.9183063 0 0 1 3.89453,3.07031 l 0.0879,-0.61328 a 4.0238592,3.9183063 0 0 0 -3.98242,-4.45703 z m -220.222659,4.08984 c 0,3.52448 -0.371317,5.60456 -1.1269529,6.89258 -0.7556364,1.28803 -2.0769574,2.43165 -5.5996093,3.76563 a 4.0238592,3.9183063 0 0 0 -2.3496094,4.66406 4.0238592,3.9183063 0 0 1 2.3496094,-2.66406 c 3.5226564,-1.33398 4.8439801,-2.4776 5.5996093,-3.76563 0.7556399,-1.28802 1.1269529,-3.3681 1.1269529,-6.89258 z" />
</svg>
