<?xml version="1.0" encoding="UTF-8" standalone="no"?>
<svg
   width="94.924423"
   height="88.986053"
   version="1.1"
   id="svg25"
   sodipodi:docname="polito.svg"
   inkscape:version="1.3.2 (091e20ef0f, 2023-11-25)"
   xmlns:inkscape="http://www.inkscape.org/namespaces/inkscape"
   xmlns:sodipodi="http://sodipodi.sourceforge.net/DTD/sodipodi-0.dtd"
   xmlns="http://www.w3.org/2000/svg"
   xmlns:svg="http://www.w3.org/2000/svg">
  <defs
     id="defs25" />
  <sodipodi:namedview
     id="namedview25"
     pagecolor="#ffffff"
     bordercolor="#000000"
     borderopacity="0.25"
     inkscape:showpageshadow="2"
     inkscape:pageopacity="0.0"
     inkscape:pagecheckerboard="0"
     inkscape:deskcolor="#d1d1d1"
     inkscape:zoom="2.7531152"
     inkscape:cx="157.45799"
     inkscape:cy="44.49505"
     inkscape:window-width="1904"
     inkscape:window-height="995"
     inkscape:window-x="20"
     inkscape:window-y="20"
     inkscape:window-maximized="0"
     inkscape:current-layer="g25" />
  <g
     data-name="Raggruppa 279"
     fill="#00284b"
     id="g25"
     transform="translate(3.5336837e-5,-0.0093817)">
    <g
       data-name="Raggruppa 277"
       id="g6">
      <path
         data-name="Tracciato 263"
         d="m 29.355,52.287 0.305,-0.292 0.384,0.762 -0.342,-0.887 h -0.3 l -0.343,0.416 z m 0.044,0.1 0.206,-0.032 0.1,0.247 0.145,0.07 -0.211,-0.47 z m 0.862,-1.49 c 0.08,0.012 0.118,0.087 0.144,0.236 0.042,0.372 0.272,0.514 0.343,0.084 0.026,-0.136 0.07,-0.188 0.144,-0.158 V 50.98 L 30.26,50.816 Z m 0.632,-2.857 -0.632,-0.275 v 2.8 l 0.632,0.173 z m -0.151,-0.637 -0.212,0.165 0.184,-0.028 0.088,0.22 0.129,0.063 z m 39.436,2.512 h 0.36 v -0.052 h -0.363 l -0.241,0.074 0.012,0.05 z m -39.723,2.546 0.289,-0.276 0.364,0.72 -0.324,-0.838 h -0.28 l -0.323,0.393 z m 0.041,0.1 0.195,-0.03 0.093,0.233 0.137,0.067 -0.2,-0.444 z m 1.409,-4.076 -0.632,-0.276 v 2.64 l 0.632,0.173 z m -1.1,-1.378 H 30.54 l -0.306,0.372 h 0.26 l 0.273,-0.261 0.343,0.681 z m 39.374,3.711 h 0.363 v -0.052 h -0.368 l -0.235,0.064 0.01,0.051 z m 0,0.448 h 0.363 v -0.052 h -0.368 l -0.235,0.056 0.009,0.052 z m -41.1,-0.667 c 0.1,0.015 0.152,0.1 0.185,0.26 0.053,0.394 0.345,0.564 0.439,0.107 0.032,-0.146 0.1,-0.195 0.185,-0.16 v -0.083 l -0.809,-0.21 z m 40.864,-0.23 0.008,0.052 0.231,-0.052 h 0.363 v -0.052 a 1.9,1.9 0 0 0 -0.609,0.052 z m -44.3,-5.737 -0.443,0.539 h 0.376 l 0.4,-0.378 0.5,0.986 -0.443,-1.147 z m 1.2,7.3 0.232,-0.036 0.111,0.279 0.164,0.08 -0.239,-0.531 z m 0.367,-6.569 h -0.313 l -0.362,0.44 h 0.308 l 0.323,-0.308 0.407,0.806 z m 42.736,9.938 h 0.6 v -0.053 h -0.6 z m -43.161,-3.485 0.345,-0.329 0.434,0.86 -0.387,-1 h -0.332 l -0.387,0.47 z M 26.034,51.128 H 25.65 l -0.443,0.539 h 0.378 l 0.4,-0.378 0.5,0.986 z m -0.606,-1.877 0.8,0.219 v -3.455 l -0.8,-0.348 z m 0.213,2.551 0.266,-0.041 0.127,0.319 0.188,0.091 -0.274,-0.607 z m 1.491,-6.08 -0.251,0.2 0.217,-0.034 0.1,0.26 0.153,0.075 z m -0.929,-0.045 -0.273,-0.608 -0.307,0.239 0.266,-0.042 0.127,0.319 z m -1.35,10.081 0.226,-0.006 v -0.05 c -0.136,0.008 -0.458,0 -0.6,0 v 0.052 z m 4.217,-5.509 0.809,0.221 V 47.602 L 29.07,47.25 Z m -4.585,5.053 h 0.6 v -0.053 h -0.6 z m 2.825,-8.819 -0.7,-0.3 v 3.394 l 0.7,0.191 z m -0.7,3.488 c 0.091,0.014 0.13,0.1 0.16,0.282 0.047,0.453 0.3,0.614 0.379,0.092 0.029,-0.164 0.075,-0.23 0.16,-0.2 V 50.05 l -0.7,-0.181 z m -2.125,4.883 h 0.6 v -0.052 h -0.6 z m 3.516,-2.8 0.349,-0.333 0.439,0.87 -0.391,-1.013 H 28.06 l -0.391,0.475 z m -0.311,-1.81 c 0.09,0.013 0.13,0.1 0.16,0.27 0.047,0.428 0.3,0.587 0.379,0.092 0.028,-0.155 0.076,-0.217 0.16,-0.184 v -0.09 l -0.7,-0.181 z m 0.529,-4.018 -0.228,0.178 0.2,-0.031 0.094,0.237 0.14,0.068 z m 0.064,-0.324 h -0.285 l -0.329,0.4 h 0.28 l 0.294,-0.28 0.37,0.733 z m 1.137,1.168 0.213,-0.033 0.1,0.255 0.15,0.073 -0.219,-0.487 z m -1.369,5.1 0.235,-0.036 0.112,0.281 0.165,0.08 -0.241,-0.536 z m 1.684,-5.644 h -0.307 l -0.355,0.432 h 0.3 l 0.316,-0.3 0.4,0.789 z m 40.442,5.63 h 0.363 v -0.052 h -0.366 l -0.235,0.034 0.006,0.052 z m 0,0.448 H 70.54 V 52.552 H 70.175 L 69.94,52.58 v 0.052 z m -44.745,-2.94 c 0.1,0.015 0.149,0.111 0.183,0.3 0.053,0.476 0.344,0.656 0.435,0.106 0.032,-0.173 0.088,-0.24 0.183,-0.2 v -0.1 l -0.8,-0.207 z m 45.108,5.13 h -0.6 v 0.052 h 0.6 z m -42.155,-7.841 -0.7,-0.3 v 3.22 l 0.7,0.191 z m 2.886,4.207 c 0.079,0.012 0.118,0.083 0.144,0.224 0.042,0.349 0.271,0.488 0.343,0.084 0.025,-0.128 0.072,-0.176 0.144,-0.147 V 51.248 L 31.27,51.084 Z m 38.9,0.555 h 0.363 v -0.052 a 2.739,2.739 0 0 0 -0.6,0.038 l 0.007,0.052 z m -50.652,6.787 a 5.622,5.622 0 0 1 0.048,-0.962 v -4.389 c -0.014,-2.583 -1.657,-3.026 -1.7,-0.129 0.007,0.112 -0.025,5.122 0.037,5.063 v 0.6 z m 50.413,-12.557 0.016,0.048 0.231,-0.106 h 0.359 v -0.052 h -0.363 z m 0.606,-0.559 h -0.363 l -0.244,0.121 0.018,0.048 0.23,-0.116 h 0.358 z m -0.358,-0.4 h 0.358 v -0.052 h -0.363 l -0.244,0.126 0.019,0.048 z m -38.439,2.932 -0.212,0.165 0.184,-0.028 0.088,0.22 0.129,0.063 z m 38.209,-3.255 0.23,-0.125 h 0.358 v -0.052 h -0.363 l -0.244,0.131 z m 0.23,1.669 h 0.358 V 46.28 h -0.363 l -0.244,0.122 0.018,0.048 z m 0,1.794 h 0.359 v -0.052 h -0.363 l -0.242,0.092 0.015,0.049 z m -0.245,-0.422 0.013,0.051 0.232,-0.077 h 0.36 v -0.052 h -0.363 z m 0.245,-0.923 h 0.359 v -0.053 h -0.363 l -0.243,0.107 0.016,0.048 z m 0,0.448 h 0.359 v -0.052 h -0.363 l -0.242,0.095 0.015,0.049 z m -0.248,-3.074 0.018,0.048 0.23,-0.114 h 0.358 v -0.052 h -0.363 z m -45.859,13.83 v -7.727 c 0.005,0 0,-0.165 0,-0.165 l -0.759,-0.147 v -0.844 l -0.791,-0.2 v -2.938 h -0.088 v 0.393 h -0.13 a 1.017,1.017 0 0 0 -0.24,-0.6 h 0.984 l -1.664,-1.179 -1.67,1.184 h 0.984 a 1.017,1.017 0 0 0 -0.24,0.6 h -0.174 v 0.134 h 0.289 a 0.813,0.813 0 1 1 1.621,-0.067 v 0.067 h 0.244 v 2.389 l -0.389,-0.1 v -0.3 h -0.61 v 0.144 L 21.309,48.597 V 48.485 H 20.861 L 17.433,47.63 v -1.666 h -0.091 v 0.393 h -0.13 a 1.012,1.012 0 0 0 -0.24,-0.6 h 0.984 l -1.671,-1.179 -1.67,1.184 h 0.984 a 1.014,1.014 0 0 0 -0.239,0.6 h -0.175 v 0.134 h 0.289 a 0.817,0.817 0 1 1 1.621,0 h 0.244 v 1.117 l -0.389,-0.1 V 46.72 h -0.61 v 0.641 L 16.209,47.328 V 46.72 h -0.61 v 0.456 l -1.864,-0.465 -1.579,-0.394 v 0.082 l 1.34,0.335 v 0.122 l -1.36,-0.332 v 0.041 l 1.36,0.332 v 1.148 l -1.36,-0.264 v 0.165 l 11.893,2.3 c 0.023,-0.004 -0.067,7.836 0.044,7.739 z M 22.025,45.716 a 0.892,0.892 0 0 0 -1.287,0 V 45.59 h -0.446 l 1.093,-0.758 1.089,0.759 h -0.449 z m -5.1,0 a 0.892,0.892 0 0 0 -1.287,0 V 45.59 h -0.446 l 1.09,-0.759 1.089,0.759 h -0.446 z m -2.54,2.5 -0.645,-0.125 v -1.3 l 0.645,0.161 z m 1.216,0.236 -1.143,-0.221 v -1.1 l 1.143,0.287 z m 0,-1.076 -1.143,-0.286 v -0.116 l 1.143,0.285 z m 0.762,1.223 -0.567,-0.11 v -1.182 l 0.567,0.142 z m 1.205,0.233 -1.131,-0.219 v -0.99 l 1.131,0.267 z m 0,-0.984 -1.131,-0.267 v -0.114 l 1.131,0.283 z m 0.657,1.111 -0.469,-0.091 v -1.066 l 0.469,0.117 z m 1,0.194 -0.945,-0.183 v -0.907 l 0.945,0.231 z m 0,-0.9 -0.945,-0.231 v -0.093 l 0.945,0.236 z m 0.61,1.02 -0.487,-0.095 v -0.982 l 0.487,0.122 z m 0.935,0.181 -0.873,-0.169 V 48.46 l 0.873,0.213 z m 0,-0.824 -0.873,-0.213 v -0.083 l 0.873,0.218 z m 0.491,0.919 -0.369,-0.071 v -0.9 l 0.369,0.092 z m 0.893,0.173 -0.831,-0.161 v -0.759 l 0.831,0.2 z m 0,-0.755 -0.831,-0.2 v -0.074 l 0.831,0.208 z m 0.332,0.819 -0.209,-0.04 v -0.817 l 0.209,0.052 z m 0.74,0.144 -0.679,-0.132 v -0.696 l 0.679,0.166 z m 0,-0.7 -0.679,-0.165 v -0.067 l 0.679,0.17 z m -6.168,8.931 c 0.1,-0.077 0.033,-4.962 0.05,-5.2 0,-1.211 -0.4,-2.252 -0.9,-2.325 -0.5,-0.073 -0.9,0.907 -0.9,2.188 -0.009,0.807 0,5.453 0.039,6.148 l 1.709,-0.194 z m -0.1,-11.688 c -0.017,-1.063 -1.33,-1.056 -1.339,0 -0.005,-0.002 1.344,0.012 1.335,-0.002 z m 5.092,1.884 v -1.635 h -0.61 v 1.635 z m 0,-1.884 c -0.017,-1.063 -1.33,-1.056 -1.339,0 0.001,-0.002 1.349,0.011 1.34,-0.002 z M 70.537,43.59 h -0.363 l -0.244,0.123 0.018,0.048 0.23,-0.119 h 0.358 z m -56.11,15.488 a 6.1,6.1 0 0 1 0.061,-1.136 v -5.179 c -0.019,-3.045 -2.148,-3.608 -2.208,-0.167 -0.012,0.883 0,5.961 0.047,6.72 z m 8.87,-1.007 c 0.055,-1.721 0.032,-2.92 0.037,-4.636 -0.008,-2.243 -1.193,-2.573 -1.224,-0.093 v 4 a 8.28,8.28 0 0 1 0.026,0.861 z M 15.933,69.88 a 8.808,8.808 0 0 1 1.045,3.452 0.5,0.5 0 0 0 0.127,-0.337 c 0.222,-3.277 -1.307,-6.241 -3.6,-7.406 -0.268,2.073 0.2,5.957 3.12,7.77 a 0.265,0.265 0 0 0 0.323,0 h -0.035 a 11.254,11.254 0 0 0 -1.959,-4.857 10.426,10.426 0 0 1 -0.835,-1.529 c 0.541,1.041 1.266,1.869 1.814,2.904 z m 54.245,-21.3 h 0.359 v -0.052 h -0.363 l -0.242,0.088 0.014,0.05 z m -48.482,9.676 a 5.208,5.208 0 0 1 0.044,-0.888 v -4.056 c -0.013,-2.384 -1.537,-2.795 -1.58,-0.12 0.006,0.1 -0.023,4.741 0.034,4.674 v 0.555 z m -1,-9.9 h 0.61 v -1.635 h -0.61 z M 70.538,43.14 h -0.363 l -0.244,0.129 0.019,0.048 0.23,-0.124 h 0.358 z m -0.36,5.884 h 0.36 v -0.052 h -0.363 l -0.241,0.083 0.013,0.05 z m -37.893,2.393 c 0.078,0.012 0.119,0.08 0.144,0.213 0.042,0.326 0.271,0.463 0.343,0.083 0.025,-0.12 0.073,-0.163 0.145,-0.135 v -0.069 l -0.632,-0.164 z m 0.473,-3.008 -0.212,0.165 0.184,-0.028 0.088,0.22 0.129,0.063 z m 0.059,-0.3 h -0.264 l -0.306,0.372 h 0.26 l 0.273,-0.26 0.344,0.68 z m -0.332,4.713 0.252,-0.241 0.317,0.629 -0.282,-0.731 h -0.244 l -0.283,0.344 z m 37.449,-3.335 0.011,0.051 0.229,-0.066 h 0.363 V 49.42 h -0.368 z m -37.412,3.422 0.17,-0.027 0.081,0.2 0.12,0.058 -0.174,-0.387 z M 31.489,52.64 31.762,52.379 32.106,53.06 31.8,52.268 H 31.535 L 31.229,52.64 Z M 31.8,47.618 h -0.265 l -0.306,0.372 h 0.26 l 0.273,-0.26 0.344,0.68 z m 1.116,1.308 -0.632,-0.275 v 2.477 l 0.632,0.173 z m 1.518,0.165 -0.231,0.28 h 0.2 l 0.205,-0.2 0.259,0.512 -0.23,-0.6 z m -2.906,3.642 0.184,-0.028 0.088,0.22 0.129,0.063 -0.189,-0.42 z m 2.924,0.443 0.139,-0.021 0.066,0.166 0.1,0.047 -0.142,-0.315 z m -0.144,-1.495 0.4,0.11 v -2.089 l -0.4,-0.175 z m 0.422,-2.048 -0.142,-0.316 -0.16,0.124 0.138,-0.021 0.066,0.166 z m -0.073,3.193 h -0.2 l -0.23,0.28 h 0.2 l 0.206,-0.2 0.258,0.512 z m -0.349,-0.893 c 0.116,0.009 0.1,0.451 0.2,0.441 0.112,0.044 0.081,-0.388 0.2,-0.339 v -0.06 l -0.4,-0.1 z m -0.509,0.715 h -0.232 l -0.269,0.327 h 0.228 l 0.24,-0.229 0.3,0.6 z m -0.239,0.41 0.162,-0.025 0.077,0.193 0.114,0.055 -0.166,-0.368 z m -0.03,-4.436 -0.268,0.327 h 0.228 l 0.24,-0.229 0.3,0.6 -0.268,-0.7 z m 0.346,0.633 -0.166,-0.369 -0.186,0.145 0.161,-0.025 0.077,0.194 z m -0.581,2.421 c 0.076,0.011 0.119,0.076 0.144,0.2 0.041,0.3 0.27,0.436 0.343,0.083 0.025,-0.112 0.075,-0.15 0.144,-0.123 v -0.064 l -0.632,-0.164 z m 23.534,-2.443 -0.715,0.37 h 0.423 v -0.016 h -0.288 l 0.591,-0.258 0.591,0.258 h -0.286 v 0.016 h 0.424 c -0.004,-0.001 -0.732,-0.384 -0.738,-0.371 z m -15.568,6.736 c 0.336,-0.042 0.259,0.441 0.605,0.428 0.347,0.012 0.27,-0.471 0.606,-0.428 V 55.902 H 41.261 Z M 24.485,54.402 h 0.361 l 0.235,0.019 V 54.369 L 24.845,54.35 h -0.36 z m 15.547,-5.176 -0.734,0.372 h 0.424 c 0.025,-0.035 -0.262,-0.009 -0.288,-0.016 l 0.591,-0.258 0.59,0.258 h -0.288 c -0.028,0.037 0.422,0.007 0.424,0.016 0.002,0.009 -0.715,-0.367 -0.721,-0.368 z m 2.166,6.463 v -1.661 h -0.656 v 1.661 z m 0,-3.773 v -1.661 h -0.656 v 1.661 z m -0.321,1.083 -0.734,0.372 h 0.424 c 0.025,-0.035 -0.263,-0.008 -0.288,-0.016 l 0.59,-0.258 0.591,0.258 h -0.288 c -0.028,0.036 0.422,0.007 0.424,0.016 z M 39.42,52.191 c 0.336,-0.043 0.259,0.441 0.606,0.428 0.347,0.012 0.269,-0.471 0.605,-0.428 V 52.124 H 39.42 Z m 2.951,-2.048 h -1 v 0.068 h 1 z m -2.951,5.821 c 0.336,-0.043 0.259,0.441 0.606,0.428 0.347,0.012 0.269,-0.471 0.605,-0.428 V 55.902 H 39.42 Z m 14.235,-5.821 h -1 v 0.068 h 1 z m -13.13,3.773 h -1 v 0.068 h 1 z m -0.172,-2 v -1.661 h -0.656 v 1.661 z m 0,3.773 v -1.661 h -0.656 v 1.661 z m 0.172,-5.546 h -1 v 0.068 h 1 z m -0.493,2.856 -0.734,0.372 h 0.424 c 0.025,-0.035 -0.262,-0.008 -0.288,-0.016 l 0.591,-0.258 0.59,0.258 h -0.288 c -0.028,0.036 0.422,0.007 0.424,0.016 0.002,0.009 -0.715,-0.369 -0.721,-0.369 z m 5.793,-3.825 a 0.894,0.894 0 0 0 -0.8,0.963 c 0,0.266 0.006,4.61 0.034,1.5 -0.117,-2.3 1.461,-1.793 1.545,-0.422 l 0.018,1.541 0.009,-2.623 a 0.894,0.894 0 0 0 -0.808,-0.956 z m 1.7,0 a 0.892,0.892 0 0 0 -0.8,0.961 v 2.021 h 0.13 v 0.57 h 0.085 v -0.624 h -0.181 v -1.458 h 0.107 l 0.2,0.563 c 0,0 0.455,0.006 0.45,0 -0.007,0.009 0.45,0 0.45,0 l 0.2,-0.563 h 0.108 v 1.458 h -0.189 v 0.624 h 0.084 v -0.57 h 0.13 v -2.021 a 0.9,0.9 0 0 0 -0.775,-0.956 z m 1.674,0 a 0.894,0.894 0 0 0 -0.8,0.963 l 0.009,2.623 0.018,-1.541 c 0.084,-1.371 1.662,-1.876 1.544,0.422 0.028,3.107 0.034,-1.241 0.034,-1.5 a 0.894,0.894 0 0 0 -0.807,-0.964 z m -7.934,3.017 c 0.336,-0.042 0.259,0.441 0.605,0.428 0.347,0.012 0.27,-0.471 0.606,-0.428 V 52.124 H 41.265 Z M 51.59,54.04 h -0.492 v -4.5 c 0,-0.111 0.075,-0.445 0.212,-0.329 0.124,0.16 0.227,-0.032 0.273,-0.145 H 51.015 V 48.83 H 50.86 v 0.236 h -0.538 c 0.033,0.113 0.128,0.269 0.247,0.151 0.164,-0.123 0.246,0.189 0.244,0.317 v 4.477 h -0.328 v 0.168 h -0.276 v 0.17 h 1.545 v -0.147 h -0.169 z m 2.065,-0.124 h -1 v 0.068 h 1 z m -0.512,-0.915 -0.715,0.37 h 0.423 v -0.016 h -0.288 l 0.591,-0.258 0.59,0.258 h -0.286 v 0.016 h 0.424 c -0.008,0.007 -0.737,-0.38 -0.742,-0.369 z m 0.34,2.687 v -1.661 h -0.655 v 1.661 z m -0.933,0.275 c 0.336,-0.043 0.259,0.441 0.606,0.428 0.347,0.012 0.269,-0.471 0.605,-0.428 V 55.902 H 52.55 Z m -7.783,-7.026 c 0,0.007 2.744,0 2.746,0 v -0.034 h -2.738 c 0,0 -0.132,-0.093 -0.136,-0.1 h -0.354 v 0.034 h 0.345 z m 5.493,0 0.132,-0.1 h 0.345 v -0.034 h -0.352 c 0,0 -0.134,0.094 -0.136,0.1 h -2.735 v 0.034 c 0,0 2.741,0.011 2.743,0.005 z m -8.382,0.288 -0.734,0.372 h 0.424 c 0.025,-0.035 -0.263,-0.009 -0.288,-0.016 l 0.59,-0.258 0.591,0.258 h -0.288 c -0.028,0.037 0.422,0.007 0.424,0.016 0.002,0.009 -0.712,-0.366 -0.722,-0.367 z m 5.186,2.932 h 0.9 v -0.865 h -0.9 z m -9.489,0.033 c 0.336,-0.043 0.259,0.441 0.606,0.428 0.347,0.012 0.269,-0.471 0.605,-0.428 v -0.067 h -1.211 z m 6.967,1.816 h -0.329 v -4.477 c 0,-0.13 0.081,-0.437 0.244,-0.317 a 0.118,0.118 0 0 0 0.2,-0.044 l 0.045,-0.107 h -0.539 v -0.236 h -0.154 v 0.236 h -0.568 l 0.065,0.13 a 0.116,0.116 0 0 0 0.208,0.015 c 0.136,-0.12 0.215,0.224 0.212,0.329 v 4.5 h -0.493 v 0.161 H 43.27 v 0.145 h 1.545 v -0.17 h -0.276 z m -6.355,-4.781 -0.734,0.372 h 0.424 c 0.025,-0.035 -0.263,-0.009 -0.288,-0.016 l 0.591,-0.258 0.59,0.258 h -0.285 c -0.028,0.037 0.422,0.007 0.424,0.016 0.002,0.009 -0.718,-0.366 -0.724,-0.367 z M 85.032,63.479 C 85.124,63.248 85,62.543 84.687,62.77 c -0.067,0.053 -0.137,0.126 -0.214,0.124 -0.049,0 0,-0.312 -0.028,-0.666 -0.043,-0.64 -0.229,-1.452 -0.686,-1.368 -0.463,0.159 -0.6,0.855 -0.755,1.263 -0.071,0.209 -0.147,0.693 -0.317,0.417 -0.2,-0.3 -0.44,-0.031 -0.5,0.275 -0.145,0.415 -0.062,1.247 -0.156,1.571 -0.044,0.062 -0.1,0 -0.176,-0.04 a 0.255,0.255 0 0 0 -0.319,0.042 c -0.284,0.225 -0.2,0.795 -0.162,0.93 0.038,0.135 0.228,0.323 0.212,0.416 -0.059,0.08 -0.356,-0.169 -0.471,-0.026 a 0.877,0.877 0 0 0 -0.075,0.745 c 0.053,0.206 0.324,0.44 0.3,0.533 -0.024,0.093 -0.093,0.054 -0.179,0.12 -0.086,0.066 -0.126,0.418 -0.169,0.551 a 1.974,1.974 0 0 1 -0.225,0.355 c -0.048,0.064 -0.135,0.569 0.113,0.5 a 4.493,4.493 0 0 0 0.625,-0.835 11.42,11.42 0 0 0 1.682,-3.668 13.011,13.011 0 0 1 -2.114,4.608 4.765,4.765 0 0 0 1.767,-1.387 c 0.03,-0.248 -0.23,0 -0.2,-0.168 0.358,-0.236 1.066,-0.366 1.406,-0.761 0.222,-0.169 0.553,-0.846 0.136,-0.9 -0.122,-0.009 -0.263,0 -0.313,-0.066 -0.002,-0.133 1.14,-1.333 1.161,-1.851 z M 84.119,20.956 c -0.135,0.138 0.027,0.283 -0.008,0.443 -0.011,0.052 -0.211,-0.008 -0.452,0 -1.195,0.016 -1.477,0.983 -0.385,1.537 0.178,0.1 0.413,0.2 0.216,0.361 a 0.322,0.322 0 0 0 0.086,0.563 c 0.363,0.184 0.934,0.064 1,0.159 0.04,0.106 -0.1,0.2 -0.12,0.3 -0.061,0.312 0.364,0.409 0.562,0.312 0.094,-0.035 0.26,-0.258 0.317,-0.236 0.034,0.075 -0.2,0.435 -0.126,0.545 0.074,0.193 0.32,0.147 0.463,0.084 0.143,-0.063 0.353,-0.361 0.409,-0.339 0.056,0.022 0.015,0.1 0.038,0.194 0.023,0.094 0.239,0.132 0.315,0.175 0.076,0.043 0.145,0.205 0.179,0.232 0.167,0.132 0.406,0.008 0.325,-0.215 -0.223,-0.37 -0.527,-0.776 -0.8,-1.143 a 4.53,4.53 0 0 0 -1.61,-1.177 c 0.015,0.007 0.057,0.012 0.086,0.023 a 4.965,4.965 0 0 1 2.242,1.888 l 0.205,0.284 a 1.364,1.364 0 0 0 -0.059,-0.6 3.872,3.872 0 0 0 -0.408,-1.228 c -0.155,-0.028 -0.05,0.237 -0.152,0.21 a 7.054,7.054 0 0 0 -0.178,-1.449 0.509,0.509 0 0 0 -0.319,-0.338 c -0.286,-0.071 -0.241,0.415 -0.357,0.517 -0.029,0.026 -0.087,-0.078 -0.169,-0.236 -0.24,-0.441 -0.757,-1.407 -1.303,-0.862 z m -1.461,38.353 c 0.045,-0.731 0.059,-5.867 0.047,-6.72 0,-1.4 -0.494,-2.465 -1.1,-2.375 -0.606,0.09 -1.1,1.228 -1.1,2.542 v 5.179 a 6.2,6.2 0 0 1 0.062,1.136 z M 38.507,51.914 v -1.661 h -0.655 v 1.661 z m 38.578,6.762 c 0.035,-0.616 0.045,-4.945 0.036,-5.664 -0.045,-2.893 -1.688,-2.458 -1.7,0.129 v 4.389 a 5.82,5.82 0 0 1 0.048,0.962 z m -2.3,-0.26 c 0.032,-0.569 0.042,-4.566 0.034,-5.229 -0.042,-2.671 -1.566,-2.268 -1.58,0.12 v 4.051 a 5.32,5.32 0 0 1 0.044,0.888 z m 4.846,0.55 c 0.037,-0.669 0.048,-5.367 0.039,-6.148 -0.047,-3.139 -1.782,-2.676 -1.8,0.137 v 4.771 a 6.493,6.493 0 0 1 0.05,1.046 z m 3.234,-11.19 -1.36,0.264 v -1.148 l 1.36,-0.332 v -0.041 l -1.36,0.332 v -0.122 l 1.341,-0.335 v -0.082 l -3.443,0.859 v -0.456 h -0.61 v 0.608 l -0.131,0.033 v -0.641 h -0.61 v 0.793 l -0.389,0.1 v -1.116 h 0.244 v -0.067 a 0.811,0.811 0 1 1 1.621,0 v 0.067 h 0.289 v -0.134 h -0.175 a 1.012,1.012 0 0 0 -0.24,-0.6 h 0.983 l -1.669,-1.184 -1.669,1.184 h 0.984 a 1.018,1.018 0 0 0 -0.24,0.6 h -0.13 V 45.965 H 77.57 v 1.666 l -3.429,0.855 h -0.448 v 0.112 l -0.131,0.032 v -0.144 h -0.61 v 0.3 l -0.223,0.056 h -0.008 l -0.158,0.04 v -2.39 h 0.244 v -0.067 a 0.811,0.811 0 1 1 1.621,0 v 0.067 h 0.289 v -0.134 h -0.175 a 1.014,1.014 0 0 0 -0.24,-0.6 h 0.984 l -1.669,-1.184 -1.669,1.184 h 0.984 a 1.012,1.012 0 0 0 -0.239,0.6 h -0.13 v -0.393 h -0.091 v 2.937 l -0.791,0.2 v 0.846 l -0.759,0.147 v 7.891 h 0.045 v -7.735 l 11.893,-2.3 z m -10.409,2.026 -0.679,0.132 v -0.658 l 0.679,-0.166 z m 0,-0.735 -0.679,0.165 v -0.063 l 0.679,-0.17 z m 0.271,0.683 -0.209,0.04 v -0.806 l 0.209,-0.052 z m 0.954,-0.185 -0.831,0.161 v -0.711 l 0.831,-0.2 z m 0,-0.8 -0.831,0.2 v -0.063 l 0.831,-0.208 z m 0.43,0.714 -0.369,0.071 v -0.875 l 0.369,-0.092 z m 1,-0.193 -0.873,0.169 v -0.781 l 0.873,-0.213 z m 0,-0.868 -0.873,0.213 v -0.078 l 0.873,-0.218 z m 0.548,0.762 -0.487,0.095 V 48.32 l 0.487,-0.122 z m 1.067,-0.207 -0.945,0.183 v -0.859 l 0.945,-0.231 z m 0,-0.949 -0.945,0.231 v -0.087 l 0.945,-0.236 z m 0.524,0.847 -0.469,0.091 V 47.917 L 77.25,47.8 Z m 1.32,-0.255 -1.131,0.219 v -0.942 l 1.131,-0.267 z m 0,-1.032 -1.131,0.267 v -0.1 l 1.131,-0.283 z m 0.64,0.908 -0.567,0.11 v -1.15 L 79.21,47.31 Z m 1.337,-0.259 -1.142,0.221 V 47.42 l 1.142,-0.287 z m 0,-1.141 -1.142,0.286 v -0.117 l 1.142,-0.285 z m 0.719,1 -0.645,0.125 v -1.262 l 0.645,-0.161 z m 8.966,-0.487 c 0.286,-0.472 0.688,-1.117 0.5,-1.671 -0.147,-0.368 -0.436,0.137 -0.582,0.111 a 10.016,10.016 0 0 1 0.185,-1.268 c 0.039,-0.44 0.111,-1.218 -0.455,-1.288 -0.181,-0.012 -0.165,0.284 -0.291,0.4 -0.041,0.036 -0.139,-0.226 -0.311,-0.461 -0.312,-0.431 -0.812,-0.9 -1.168,-0.491 -0.356,0.409 -0.089,1.452 -0.036,1.8 0.055,0.436 -0.2,0.123 -0.4,0.343 -0.269,0.279 0.082,1.012 0.27,1.294 0.16,0.3 0.4,0.484 0.068,0.569 a 0.418,0.418 0 0 0 -0.251,0.284 0.71,0.71 0 0 0 0.3,0.751 c 0.09,0.064 0.338,0.032 0.369,0.107 0.015,0.038 -0.074,0.075 -0.171,0.129 -0.422,0.164 -0.2,0.621 0.056,0.77 0.14,0.093 0.47,0.036 0.5,0.113 0.03,0.077 -0.05,0.107 -0.089,0.216 -0.039,0.109 0.094,0.371 0.122,0.49 a 2.265,2.265 0 0 1 -0.017,0.4 c 0,0.123 0.175,0.456 0.325,0.236 a 14.244,14.244 0 0 0 0.09,-3.425 6.546,6.546 0 0 0 -0.266,-1.434 11.412,11.412 0 0 1 0.428,3.782 c -0.011,0.336 -0.023,0.678 -0.045,1 a 6.418,6.418 0 0 0 0.793,-2.247 c -0.09,-0.19 -0.186,0.173 -0.24,0.039 -0.018,-0.1 0.225,-0.401 0.313,-0.552 z M 88.985,26.619 a 3.12,3.12 0 0 1 0.451,1.053 c -0.068,0.135 -0.118,-0.32 -0.212,-0.044 a 10.8,10.8 0 0 0 0.2,2.261 30.8,30.8 0 0 0 0.706,-3.866 11.333,11.333 0 0 1 -0.192,1.946 c -0.115,0.647 -0.26,1.362 -0.376,1.974 0.012,0.078 -0.023,0.191 0.13,0.205 0.272,-0.1 0.2,-0.358 0.306,-0.6 0.052,-0.1 0.229,-0.312 0.222,-0.435 -0.136,-0.467 0.129,-0.148 0.425,-0.193 a 0.506,0.506 0 0 0 0.367,-0.47 c 0,-0.243 -0.318,-0.437 -0.277,-0.508 0.041,-0.071 0.25,0.036 0.34,0 a 0.755,0.755 0 0 0 0.357,-0.9 c -0.04,-0.233 -0.259,-0.356 -0.32,-0.539 -0.02,-0.155 0.094,-0.323 0.218,-0.635 0.148,-0.234 0.077,-0.7 0.387,-0.816 a 0.986,0.986 0 0 0 0.005,-0.185 c 0,-0.176 -0.145,-0.378 -0.281,-0.339 -0.093,0.044 -0.173,-0.076 -0.161,-0.383 a 4.609,4.609 0 0 0 -0.275,-2.453 c -0.394,-0.464 -0.747,0.242 -0.967,0.8 -0.12,0.307 -0.18,0.631 -0.22,0.594 -0.123,-0.111 -0.144,-0.447 -0.3,-0.393 -0.2,0.07 -0.3,0.282 -0.329,0.555 -0.116,0.485 0.3,2.252 0.22,2.36 -0.066,0.012 -0.161,-0.122 -0.256,-0.2 -0.095,-0.078 -0.19,-0.114 -0.259,0.089 a 1.926,1.926 0 0 0 0.091,1.122 z m 2.216,6.725 c -0.291,0.737 0.323,1.7 0.438,2.373 -0.074,0.116 -0.092,-0.263 -0.209,-0.1 a 13.257,13.257 0 0 0 0.04,1.666 c 0.012,0.393 0.04,0.667 0.1,0.693 0.468,-1.56 0.73,-3.22 1.263,-4.759 0.064,-0.17 -0.044,0.128 -0.055,0.173 -0.423,1.514 -0.68,3.165 -1.066,4.666 0.01,0.086 -0.027,0.195 0.13,0.235 0.291,-0.06 0.22,-0.338 0.338,-0.569 0.06,-0.1 0.252,-0.288 0.25,-0.414 -0.118,-0.511 0.144,-0.134 0.451,-0.128 a 0.45,0.45 0 0 0 0.4,-0.43 c 0,-0.256 -0.331,-0.515 -0.287,-0.583 0.044,-0.068 0.264,0.08 0.36,0.054 a 0.645,0.645 0 0 0 0.42,-0.73 0.673,0.673 0 0 0 -0.184,-0.448 c -0.284,-0.213 -0.062,-0.332 0.145,-0.651 0.375,-0.406 0.7,-1.63 0.141,-1.723 -0.1,0.013 -0.175,-0.09 -0.139,-0.359 0.088,-0.428 0.253,-1.94 -0.109,-2.4 -0.387,-0.554 -0.795,0.1 -1.055,0.623 -0.146,0.293 -0.228,0.6 -0.267,0.56 -0.112,-0.1 -0.1,-0.462 -0.288,-0.457 -0.654,0.224 -0.36,1.409 -0.346,1.988 a 3.961,3.961 0 0 1 0.056,0.878 c -0.143,0.016 -0.363,-0.536 -0.526,-0.158 z m -0.4,7.307 A 5.774,5.774 0 0 0 90.78,38.43 c -0.14,-0.1 -0.108,0.241 -0.2,0.165 a 10.655,10.655 0 0 0 0.225,-1.691 0.758,0.758 0 0 0 -0.2,-0.528 c -0.248,-0.217 -0.339,0.344 -0.476,0.4 -0.178,-0.424 -0.173,-1.417 -0.529,-1.813 a 0.377,0.377 0 0 0 -0.512,-0.109 c -0.166,0.1 -0.055,0.33 -0.136,0.474 -0.026,0.051 -0.19,-0.109 -0.416,-0.209 -0.955,-0.468 -1.561,0.183 -1.028,1.114 a 5.645,5.645 0 0 0 0.373,0.613 c 0.1,0.159 0.056,0.257 -0.053,0.292 -0.109,0.035 -0.379,0.3 -0.084,0.694 0.189,0.31 0.727,0.469 0.89,0.671 0,0.171 -0.263,0.246 -0.235,0.565 0.007,0.373 0.4,0.424 0.5,0.423 0.1,-10e-4 0.308,-0.163 0.358,-0.121 0.05,0.042 -0.263,0.313 -0.233,0.5 0.026,0.225 0.271,0.277 0.424,0.271 0.27,-0.027 0.592,-0.438 0.464,0.031 0,0.108 0.2,0.241 0.258,0.32 a 1.773,1.773 0 0 1 0.115,0.328 c 0.079,0.148 0.313,0.227 0.36,0 a 6.82,6.82 0 0 0 -0.462,-1.54 7.948,7.948 0 0 0 -1.171,-2.177 l -0.07,-0.074 c 0.012,0.015 0.049,0.044 0.072,0.068 a 9.894,9.894 0 0 1 1.783,3.554 z m -2.249,13.777 c 0.228,-0.559 0.718,-1.489 0.1,-1.9 -0.168,-0.089 -0.228,0.208 -0.376,0.263 -0.047,0.018 -0.072,-0.281 -0.174,-0.585 -0.181,-0.555 -0.538,-1.214 -0.969,-0.98 -0.394,0.274 -0.4,0.963 -0.459,1.4 -0.025,0.226 0,0.687 -0.232,0.513 -0.262,-0.149 -0.438,0.045 -0.455,0.466 -0.038,0.608 0.255,1.314 0.2,1.463 -0.055,0.149 -0.272,-0.12 -0.5,0.2 a 0.882,0.882 0 0 0 0.061,0.884 c 0.064,0.105 0.3,0.192 0.311,0.28 0.011,0.088 -0.371,-0.021 -0.473,0.166 a 0.73,0.73 0 0 0 0.109,0.682 c 0.187,0.261 0.656,0.249 0.283,0.519 -0.068,0.089 -0.022,0.412 -0.032,0.543 a 2.491,2.491 0 0 1 -0.13,0.4 0.564,0.564 0 0 0 0.058,0.367 c 0.124,0.125 0.189,-0.006 0.236,-0.058 a 13.684,13.684 0 0 0 1.148,-4.857 5.518,5.518 0 0 1 -0.01,0.859 16.538,16.538 0 0 1 -0.982,4.072 c 0.292,-0.1 0.565,-0.614 0.8,-0.9 0.123,-0.181 0.868,-1.183 0.46,-1.039 -0.054,0.031 -0.106,0.07 -0.112,-0.009 0.293,-0.348 0.948,-0.727 1.2,-1.2 a 1.122,1.122 0 0 0 0.185,-0.657 c -0.038,-0.433 -0.445,-0.051 -0.573,-0.142 -0.051,-0.089 0.248,-0.555 0.323,-0.749 z M 88.177,28.266 c -0.247,-0.292 -0.434,-1.248 -0.9,-1.524 a 0.4,0.4 0 0 0 -0.54,0.084 c -0.147,0.146 0.014,0.333 -0.035,0.514 -0.016,0.057 -0.213,-0.031 -0.466,-0.044 -0.456,-0.028 -1.078,0.08 -1.15,0.666 -0.053,0.51 0.438,0.921 0.832,1.132 0.087,0.058 0.107,0.113 0.057,0.182 -0.209,0.148 -0.333,0.511 0.353,0.719 -0.427,0.056 -0.512,0.5 -0.323,0.614 a 0.276,0.276 0 0 0 0.206,0.044 c 0.223,0 0.739,-0.141 0.867,-0.054 0.016,0.061 -0.14,0.177 -0.158,0.268 -0.044,0.215 0.06,0.5 0.293,0.536 a 0.622,0.622 0 0 0 0.3,-0.02 c 0.1,-0.033 0.282,-0.273 0.34,-0.246 0.058,0.027 -0.211,0.415 -0.148,0.6 0.074,0.224 0.333,0.192 0.486,0.133 0.153,-0.059 0.379,-0.386 0.438,-0.356 0.059,0.03 0.013,0.118 0.036,0.228 0.023,0.11 0.248,0.176 0.325,0.235 0.077,0.059 0.144,0.256 0.178,0.291 a 0.246,0.246 0 0 0 0.259,0.066 0.224,0.224 0 0 0 0.1,-0.188 7.879,7.879 0 0 0 -1.154,-1.942 c -0.2,-0.25 -1.169,-1.492 -1.175,-1.5 -0.006,-0.008 0.686,0.8 0.775,0.912 0.244,0.3 0.55,0.627 0.771,0.941 0.292,0.415 0.661,0.915 0.9,1.351 A 1.831,1.831 0 0 0 89.6,31.189 11.728,11.728 0 0 0 89.288,29.845 c -0.046,-0.121 -0.063,-0.184 -0.149,-0.136 -0.061,0.056 -0.021,0.247 -0.1,0.215 a 6.548,6.548 0 0 0 -0.063,-1.065 3.831,3.831 0 0 0 -0.13,-0.8 c -0.082,-0.29 -0.429,-0.531 -0.535,-0.148 -0.044,0.147 -0.073,0.307 -0.137,0.356 z M 85.901,17.602 c 0.08,0.185 0.344,0.654 0.308,0.736 -0.109,0.08 -0.453,-0.287 -0.474,0.131 -0.042,0.732 0.75,1.316 1.048,1.856 -0.029,0.141 -0.149,-0.186 -0.2,0.019 a 10.868,10.868 0 0 0 0.724,2.055 c 0.025,-1.544 -0.272,-3.6 -0.285,-4.9 0.048,1.33 0.342,2.669 0.371,4 a 6.41,6.41 0 0 0 0.081,0.961 c 0,0 0.051,0.1 0.139,0.051 0.216,-0.188 0.1,-0.394 0.131,-0.663 0.024,-0.114 0.134,-0.375 0.1,-0.479 -0.034,-0.104 -0.1,-0.13 -0.077,-0.208 0.023,-0.078 0.3,-0.032 0.416,-0.126 0.212,-0.134 0.39,-0.633 0.021,-0.784 -0.353,-0.174 0,-0.153 0.155,-0.249 a 0.854,0.854 0 0 0 0.181,-0.273 0.837,0.837 0 0 0 -0.349,-0.995 c -0.087,-0.035 -0.148,-0.025 -0.172,-0.113 a 8.131,8.131 0 0 0 0.176,-1.5 c -0.053,-0.421 -0.2,-0.766 -0.492,-0.666 -0.082,0.068 -0.17,0.013 -0.224,-0.244 a 9.184,9.184 0 0 0 -0.233,-1 c -0.342,-1.224 -1.106,-1.6 -1.239,0.1 -0.033,0.326 -0.008,0.631 -0.052,0.617 -0.136,-0.044 -0.237,-0.34 -0.364,-0.23 -0.423,0.367 0.048,1.349 0.31,1.904 z m -47.223,36.32 h -1 v 0.068 h 1 z m -1.106,2.048 c 0.336,-0.043 0.259,0.441 0.606,0.428 0.347,0.012 0.269,-0.471 0.605,-0.428 v -0.068 h -1.211 z m -1.233,-6.738 -0.734,0.372 h 0.424 c 0.025,-0.035 -0.262,-0.009 -0.288,-0.016 l 0.591,-0.258 0.59,0.258 h -0.288 c -0.028,0.036 0.422,0.007 0.424,0.016 0.002,0.009 -0.713,-0.373 -0.719,-0.374 z m 2.339,0.917 h -1 v 0.068 h 1 z m -2.952,2.048 c 0.336,-0.043 0.259,0.441 0.606,0.428 0.347,0.012 0.269,-0.471 0.605,-0.428 V 52.13 h -1.211 z m 2.458,0.808 -0.734,0.372 h 0.424 c 0.025,-0.035 -0.263,-0.008 -0.288,-0.016 l 0.591,-0.258 0.59,0.258 h -0.282 c -0.028,0.036 0.422,0.007 0.424,0.016 0.002,0.009 -0.718,-0.375 -0.724,-0.375 z m 0.321,2.69 V 54.034 H 37.85 v 1.661 z m -1.845,0 v -1.661 h -0.656 v 1.661 z m 0.172,-1.773 h -1 v 0.068 h 1 z m -1.106,2.048 c 0.336,-0.043 0.259,0.441 0.606,0.428 0.347,0.012 0.269,-0.471 0.605,-0.428 V 55.902 H 35.726 Z M 72.12,76.891 a 1.184,1.184 0 0 0 0.41,-1.378 c -0.084,-0.214 -0.213,-0.011 -0.341,-0.087 a 7.646,7.646 0 0 0 0.023,-1.686 c -0.3,-1.446 -0.876,-0.248 -1.158,0.414 -0.09,0.173 -0.158,0.124 -0.19,-0.03 -0.431,-1.048 -0.737,1.32 -0.843,1.463 -0.073,0.06 -0.115,-0.192 -0.258,-0.257 a 5.827,5.827 0 0 0 -0.968,0.231 0.853,0.853 0 0 0 -0.379,1.019 c 0.09,0.192 0.62,0.529 0.018,0.4 -0.602,-0.129 -0.692,0.532 -0.491,0.871 0.054,0.153 0.434,0.321 0.448,0.463 -0.018,0.1 -0.112,0.075 -0.213,0.161 -0.101,0.086 -0.1,0.46 -0.128,0.59 -0.064,0.259 -0.228,0.355 -0.2,0.591 0.043,0.416 0.3,0.329 0.415,0.01 a 10.1,10.1 0 0 1 1.19,-1.8 l 0.311,-0.062 a 6.394,6.394 0 0 0 1.276,-2.023 c -0.019,0.054 -0.045,0.148 -0.072,0.215 a 7.282,7.282 0 0 1 -1.2,1.976 l -0.285,0.057 a 9.983,9.983 0 0 0 -1.159,1.948 4.758,4.758 0 0 0 0.929,-0.643 c 0.18,-0.1 0.319,-0.254 0.515,-0.278 0.29,-0.1 0.579,-0.247 0.356,-0.4 -0.049,-0.021 -0.1,-0.032 -0.073,-0.107 0.143,-0.071 0.523,0.091 0.732,0.075 a 0.815,0.815 0 0 0 0.919,-0.5 0.324,0.324 0 0 0 -0.107,-0.4 c -0.1,-0.078 -0.215,-0.131 -0.243,-0.228 -0.028,-0.097 0.4,-0.272 0.766,-0.608 z M 36.339,53.002 35.605,53.374 h 0.424 c 0.025,-0.035 -0.262,-0.008 -0.288,-0.016 l 0.591,-0.258 0.59,0.258 h -0.288 c -0.028,0.036 0.422,0.007 0.424,0.016 z m 0.321,-1.083 v -1.661 h -0.656 v 1.661 z m 0.172,-1.773 h -1 v 0.068 h 1 z m 5.536,3.773 h -1 v 0.068 h 1 z M 24.485,47.677 h 0.36 l 0.232,0.077 0.012,-0.051 -0.235,-0.078 h -0.369 z m 0,-0.448 h 0.359 l 0.231,0.092 0.015,-0.049 -0.235,-0.093 h -0.37 z m 0,-0.448 h 0.359 l 0.231,0.1 0.016,-0.048 -0.235,-0.1 h -0.371 z m 0,2.242 h 0.36 l 0.232,0.081 0.013,-0.05 -0.235,-0.082 h -0.37 z m 0,-2.691 h 0.358 l 0.231,0.118 0.018,-0.048 -0.235,-0.12 h -0.372 z m 0,2.243 h 0.359 l 0.232,0.085 0.014,-0.05 -0.235,-0.087 h -0.37 z m 0,-0.448 h 0.359 l 0.231,0.089 0.015,-0.049 -0.235,-0.091 h -0.37 z m 0,-2.243 h 0.358 l 0.231,0.106 0.017,-0.048 -0.235,-0.108 h -0.371 z m 0.607,-2.615 -0.235,-0.126 h -0.372 v 0.052 h 0.358 l 0.23,0.124 z m -0.607,0.372 h 0.358 l 0.231,0.119 0.018,-0.048 -0.235,-0.121 h -0.372 z m 0,0.449 h 0.358 l 0.231,0.114 0.018,-0.048 -0.235,-0.116 h -0.372 z m 0,0.9 h 0.358 l 0.23,0.121 0.019,-0.048 -0.235,-0.124 h -0.372 z m 0,-0.448 h 0.358 l 0.23,0.125 0.02,-0.047 -0.235,-0.128 h -0.372 z m 0,0.9 h 0.358 l 0.231,0.116 0.011,-0.056 -0.235,-0.119 h -0.372 z m 0,4.037 h 0.357 l 0.235,0.067 0.011,-0.051 -0.24,-0.068 h -0.363 z m 0,7.626 a 5.956,5.956 0 0 0 0.6,-0.017 v -0.052 c -0.138,0.017 -0.454,0.02 -0.6,0.017 z m 0.6,-0.9 v -0.052 a 17,17 0 0 1 -0.6,0.006 v 0.052 c 0.141,-0.009 0.456,-0.009 0.6,-0.018 z m -0.6,1.352 a 4.143,4.143 0 0 0 0.6,-0.025 V 57.48 a 4.134,4.134 0 0 1 -0.6,0.025 z m 0,-3.589 h 0.361 l 0.235,0.014 V 53.93 l -0.236,-0.014 h -0.36 z m 0,-0.9 h 0.361 l 0.235,0.024 V 53.04 a 4.4,4.4 0 0 0 -0.6,-0.024 z m 0,3.589 c 0.143,0 0.459,0 0.6,-0.012 v -0.052 a 8.494,8.494 0 0 1 -0.6,0.012 z m 0,-3.14 h 0.361 l 0.235,0.019 v -0.052 l -0.236,-0.019 h -0.36 z m 0,-3.14 a 1.83,1.83 0 0 1 0.593,0.052 l 0.009,-0.052 -0.239,-0.053 h -0.363 z m 0,0.449 a 1.457,1.457 0 0 1 0.592,0.063 l 0.011,-0.051 -0.24,-0.065 h -0.363 z m 0,0.448 a 1.7,1.7 0 0 1 0.593,0.056 l 0.009,-0.052 -0.24,-0.056 h -0.362 z m 0,-1.346 h 0.36 L 25.077,50 25.089,49.95 24.854,49.877 h -0.369 z m 0,2.692 h 0.36 l 0.235,0.028 v -0.052 a 3.681,3.681 0 0 0 -0.6,-0.028 z m 0,-0.9 h 0.36 l 0.235,0.038 0.006,-0.052 a 2.816,2.816 0 0 0 -0.6,-0.038 z m 0,0.449 h 0.36 l 0.235,0.034 0.005,-0.052 a 3.1,3.1 0 0 0 -0.6,-0.034 z m 29.91,0.032 c 0.335,-0.043 0.259,0.441 0.605,0.428 0.347,0.012 0.27,-0.471 0.606,-0.428 v -0.067 h -1.211 z m 0.933,-0.276 v -1.661 h -0.656 v 1.661 z m -0.34,-2.687 -0.715,0.37 h 0.423 v -0.016 h -0.288 l 0.59,-0.258 0.591,0.258 h -0.287 v 0.016 h 0.424 c -0.007,-0.006 -0.735,-0.389 -0.741,-0.376 z m 0.513,0.915 h -1 v 0.068 h 1 z m 1.333,2.859 -0.715,0.37 h 0.423 v -0.016 h -0.288 l 0.591,-0.258 0.591,0.258 H 57.15 v 0.016 h 0.424 c -0.009,-0.004 -0.738,-0.391 -0.743,-0.38 z m 0.513,0.915 h -1 v 0.068 h 1 z M 57.175,55.7 V 54.039 H 56.52 V 55.7 Z m -4.031,-6.46 -0.715,0.37 h 0.423 v -0.016 h -0.288 l 0.591,-0.258 0.59,0.258 h -0.286 c -0.037,0.037 0.424,0.007 0.423,0.016 -10e-4,0.009 -0.736,-0.391 -0.742,-0.378 z m -0.593,2.963 c 0.336,-0.042 0.259,0.441 0.606,0.428 0.347,0.013 0.269,-0.471 0.605,-0.428 v -0.067 h -1.211 z m 1.846,3.773 c 0.335,-0.043 0.259,0.441 0.605,0.428 0.347,0.012 0.27,-0.471 0.606,-0.428 v -0.074 h -1.211 z m 0.593,-2.963 -0.715,0.37 h 0.423 V 53.367 H 54.41 l 0.59,-0.258 0.591,0.258 h -0.287 c -0.036,0.037 0.424,0.007 0.423,0.016 -10e-4,0.009 -0.736,-0.392 -0.742,-0.381 z m 0.513,0.915 h -1 v 0.068 h 1 z m -0.172,1.773 V 54.04 h -0.656 v 1.661 z m 0.912,0.275 c 0.336,-0.043 0.259,0.441 0.606,0.428 0.347,0.012 0.269,-0.471 0.606,-0.428 v -0.074 h -1.211 z m 1.106,-5.821 h -1 v 0.068 h 1 z m 1.673,1.773 v -1.661 h -0.655 v 1.661 z m -0.34,1.086 -0.715,0.37 h 0.418 v -0.016 h -0.288 l 0.591,-0.258 0.591,0.258 h -0.287 v 0.016 h 0.424 c -0.006,-0.006 -0.731,-0.393 -0.74,-0.382 z m 0.513,-2.859 h -1 v 0.068 h 1 z m -0.513,-0.915 -0.715,0.37 h 0.418 v -0.016 h -0.288 l 0.591,-0.258 0.591,0.258 h -0.287 v 0.016 h 0.424 c -0.006,-0.008 -0.731,-0.391 -0.74,-0.378 z m -5.2,2.687 v -1.661 h -0.655 v 1.661 z M 68.8,57.842 a 14.2,14.2 0 0 0 1.739,0.16 V 57.95 h -0.363 l -0.572,-0.068 v -5.383 l -0.8,0.1 v 5.186 l -0.375,-0.044 v -5.094 l -0.7,0.089 v 4.922 l -0.376,-0.044 v -4.83 l -0.736,0.094 v 4.649 L 65.966,57.45 v -4.488 l -0.779,0.1 v 4.3 l -0.38,-0.045 v -4.2 l -0.687,0.088 v 4.035 l -0.38,-0.045 v -3.942 l -0.611,0.078 v 3.792 l -0.38,-0.045 v -3.7 l -0.6,0.076 v 3.552 l -0.38,-0.045 v -3.459 l -0.666,0.085 v 3.295 l -0.38,-0.045 v -3.2 l -0.4,0.051 v 3.1 l -0.456,-0.054 -0.04,-8.005 a 0.285,0.285 0 0 1 0.13,-0.259 c 2.457,-1.339 7.789,-4.282 10.22,-5.594 h 11.985 l 0.8,-0.978 H 70.186 l -4.382,2.636 -6.088,3.662 c 0,0 -24.414,0.008 -24.418,0 l -10.47,-6.3 H 12.052 l 0.8,0.978 h 11.994 c 2.425,1.308 7.755,4.251 10.22,5.594 a 0.286,0.286 0 0 1 0.13,0.259 l -0.04,8.005 -0.456,0.054 v -3.1 l -0.4,-0.051 v 3.2 L 33.92,56.88 V 53.585 L 33.254,53.5 v 3.459 l -0.38,0.045 v -3.562 l -0.6,-0.076 v 3.7 l -0.38,0.045 v -3.792 l -0.61,-0.078 v 3.942 l -0.38,0.045 v -4.036 l -0.686,-0.088 v 4.2 l -0.38,0.045 v -4.3 l -0.779,-0.1 v 4.488 l -0.651,0.077 v -4.649 l -0.737,-0.094 v 4.83 l -0.376,0.044 v -4.922 l -0.7,-0.089 v 5.094 l -0.376,0.044 v -5.186 l -0.8,-0.1 v 5.383 l -0.572,0.065 h -0.362 v 0.052 h 0.363 c 0.517,-0.049 9.491,-1.134 10.31,-1.229 H 59.865 Z M 43.107,55.899 h -0.242 v 0.821 h -7.6 l 0.038,-7.7 a 0.252,0.252 0 0 1 0.228,-0.264 h 7.5 l 0.071,0.541 z m 8.754,0 h -0.156 v 0.821 h -1.77 v -2.768 a 0.6,0.6 0 0 0 -1.2,0 v 2.319 l 0.132,0.127 v 0.322 h -0.9 v -0.322 l 0.118,-0.129 v -2.317 a 0.6,0.6 0 0 0 -1.2,0 v 2.321 l 0.131,0.126 v 0.322 h -0.9 v -0.322 l 0.12,-0.13 v -2.317 a 0.6,0.6 0 0 0 -1.2,0 v 2.768 h -1.739 v -0.821 h -0.156 v -6.6 l -0.07,-0.536 h 8.84 l -0.07,0.536 z m 0.3,0.821 v -0.821 h -0.242 v -6.6 l 0.071,-0.541 h 7.5 a 0.252,0.252 0 0 1 0.228,0.264 l 0.037,7.7 z m 5.925,-4.518 c 0.336,-0.043 0.259,0.441 0.606,0.428 0.347,0.013 0.269,-0.471 0.605,-0.428 v -0.067 h -1.212 z m -1.846,0 c 0.336,-0.043 0.259,0.441 0.606,0.428 0.347,0.012 0.269,-0.471 0.606,-0.428 v -0.067 h -1.211 z m 0.934,-0.276 v -1.661 h -0.655 v 1.661 z m 13.367,2.434 a 5.712,5.712 0 0 0 -0.6,0.019 v 0.052 a 5.416,5.416 0 0 1 0.6,-0.019 z M 59.192,53.927 h -1 v 0.068 h 1 z m -1.106,2.048 c 0.336,-0.043 0.259,0.441 0.606,0.428 0.347,0.012 0.269,-0.471 0.605,-0.428 V 55.902 H 58.085 Z M 59.019,55.7 V 54.039 H 58.364 V 55.7 Z m -25.722,-4.298 0.632,0.173 V 49.364 L 33.297,49.089 Z M 31.085,41.109 c 0.082,0 0.078,0.024 0.076,-0.069 h -0.733 v 0.069 h 0.076 v 0.373 h 0.24 v -0.373 h 0.1 v 0.373 h 0.241 z m -0.241,0.826 h 0.241 v -0.374 h -0.241 z m 2.355,0 h 0.24 v -0.374 h -0.24 z m -2.7,0 h 0.24 v -0.374 h -0.24 z m 2.354,0 h 0.241 v -0.374 h -0.241 z m 29.3,-0.826 c 0.083,0 0.078,0.025 0.076,-0.069 h -0.733 v 0.069 h 0.076 v 0.373 h 0.24 v -0.373 h 0.1 v 0.373 h 0.24 z m -0.24,0.826 h 0.24 v -0.374 h -0.24 z m -44.895,-4.48 h -0.61 v 1.635 h 0.61 z m 42.917,5.563 a 6.963,6.963 0 0 0 0.035,-1.312 c 0,-0.476 -0.166,-0.258 -0.166,0.018 0.006,0.001 0.137,-0.122 0.137,1.295 z m -26.352,-5.2 h -0.437 v 0.613 h 0.437 z m -0.146,3.292 c 0.083,0 0.079,0.025 0.076,-0.069 h -0.728 v 0.069 h 0.076 v 0.373 h 0.241 V 41.11 h 0.1 v 0.373 h 0.24 z m 29.019,3.566 0.108,-0.3 h -0.955 l 0.108,0.3 z M 30.843,38.431 h 0.442 v -0.613 h -0.437 z m 31.331,5.45 c -0.27,-0.049 -0.572,0.132 -0.564,0.369 h 0.146 a 0.525,0.525 0 0 1 0.423,-0.37 z m -31.115,-6.833 -0.643,0.579 0.643,-0.468 0.457,0.334 h -0.901 l -1.055,1.345 -0.5,0.289 v 0.472 c 0.009,0.01 5.577,-0.019 5.577,0.01 l 2.251,2.518 -2.289,-2.354 -5.54,-0.1 v 4.3 l -4.262,-2.488 h -2.331 l 0.006,-3.908 0.2,-0.238 v -0.212 l 0.119,-0.321 h -2.82 l 0.113,0.332 h 2.276 v 4.346 h -4.916 l 0.006,-3.908 0.2,-0.238 v -0.212 l 0.119,-0.321 h -2.82 l 0.113,0.332 h 2.277 v 4.346 h -5.046 l -0.233,0.269 h 12.786 c 2.458,1.474 7.97,4.861 10.472,6.377 h 24.385 c 2.488,-1.519 8,-4.874 10.446,-6.37 0.02,-0.021 12.786,0 12.812,-0.012 l -0.233,-0.269 h -5.043 v -4.346 h 2.276 L 80.074,36.8 h -2.82 l 0.119,0.321 v 0.212 l 0.2,0.238 0.006,3.908 h -4.916 v -4.346 h 2.276 l 0.113,-0.332 h -2.82 l 0.119,0.321 v 0.212 l 0.2,0.238 0.006,3.908 h -2.331 l -4.261,2.488 v -4.3 l -5.54,0.1 -2.289,2.354 2.249,-2.515 c 0,-0.029 5.568,0 5.577,-0.01 v -0.472 l -0.5,-0.289 -1.055,-1.345 H 63.5 l 0.457,-0.334 0.643,0.468 -0.643,-0.579 -0.493,0.444 h -0.17 l 0.758,-0.667 -1.584,-2.921 -2.083,4.871 -1.7,2.45 -1.019,0.2 -6.346,0.013 c -0.356,0 -0.347,0.539 -0.41,0.6 -0.258,0.21 -0.39,-0.073 -0.615,-0.1 h -0.731 l 0.194,0.8 a 0.424,0.424 0 0 0 0.511,0.324 c 0.049,-0.166 0.1,-0.521 0.322,-0.51 h 0.4 l -0.008,0.738 7.739,0.018 -0.259,-0.91 2,-2.279 h 5.32 l 0.141,-0.106 v 2.45 l -1.138,0.792 H 60.278 L 59.451,44.04 H 48.274 a 0.324,0.324 0 0 0 0.071,-0.215 l -0.219,0.01 h -1.232 l -0.219,-0.01 a 0.321,0.321 0 0 0 0.071,0.215 H 35.572 l -0.827,-0.787 h -4.508 l -1.138,-0.792 v -2.45 l 0.141,0.106 h 5.32 l 2,2.279 -0.259,0.91 7.739,-0.018 -0.008,-0.738 c 0.2,0.017 0.571,-0.086 0.634,0.2 l 0.087,0.308 a 0.424,0.424 0 0 0 0.511,-0.324 l 0.193,-0.8 h -0.731 a 0.333,0.333 0 0 0 -0.216,0.1 0.315,0.315 0 0 1 -0.4,0 c -0.064,-0.056 -0.054,-0.6 -0.41,-0.6 l -6.347,-0.013 -1.02,-0.2 -1.7,-2.45 -2.081,-4.869 -1.584,2.921 0.758,0.667 h -0.169 z m 32.5,1.007 v -0.238 c 0,-0.293 0.4,-0.163 0.628,-0.19 0.2,0 0.157,0.3 0.159,0.428 l 0.253,0.6 c 0.051,0.157 -0.089,0.162 -0.2,0.153 -0.169,0.021 -0.274,0.178 -0.475,0.158 -0.225,0.023 -0.336,-0.179 -0.54,-0.158 a 0.1,0.1 0 0 1 -0.076,-0.153 z m -1.34,0.748 a 0.387,0.387 0 0 0 -0.268,0.054 0.577,0.577 0 0 1 -0.656,0 c -0.1,-0.105 -0.347,0.024 -0.288,-0.207 l 0.248,-0.6 v -0.238 c 0,-0.293 0.4,-0.163 0.628,-0.19 a 0.176,0.176 0 0 1 0.159,0.19 v 0.238 l 0.253,0.6 a 0.1,0.1 0 0 1 -0.074,0.152 z m -1.028,-1.311 0.458,-0.334 0.457,0.334 z m 0.432,-0.667 0.66,0.667 h -0.141 l -0.493,-0.444 -0.493,0.444 h -0.192 z m -11.195,5.6 c -0.006,-0.31 0.565,-0.31 0.559,0 z m 12.014,2.516 v -0.09 h -0.777 v 0.651 l -0.864,0.619 v -1.5 c 0,-0.333 -0.237,-0.364 -0.237,0.195 0,0.353 0.036,1.755 0.036,1.755 0.2,-0.151 0.565,-0.427 0.757,-0.566 v 0.484 l -1.634,1.119 h -1.862 l 0.027,-2.145 h 1.077 l 0.049,-0.145 h -1.229 l 0.052,0.14 v 2.15 H 56.05 l 0.027,-2.145 h 1.077 l 0.05,-0.145 h -1.233 l 0.052,0.14 v 2.15 h -1.787 l 0.027,-2.145 h 1.078 l 0.049,-0.145 h -1.235 l 0.052,0.14 v 2.15 H 52.42 l 0.026,-2.145 h 1.078 l 0.049,-0.145 h -1.232 l 0.052,0.14 v 2.15 h -1.057 v -0.124 h -0.978 v 0.124 h -1.515 l 0.027,-2.145 h 1.077 l 0.05,-0.145 h -1.233 l 0.052,0.14 v 2.15 h -2.611 v -2.15 l 0.052,-0.14 h -1.233 l 0.049,0.145 h 1.078 l 0.027,2.145 h -1.515 v -0.124 h -0.978 v 0.124 h -1.057 v -2.15 l 0.052,-0.14 h -1.232 l 0.049,0.145 h 1.077 l 0.027,2.145 h -1.787 v -2.15 l 0.052,-0.14 h -1.232 l 0.049,0.145 h 1.078 l 0.026,2.145 H 39 v -2.15 l 0.052,-0.14 h -1.233 l 0.049,0.145 h 1.078 l 0.026,2.145 h -1.787 v -2.15 l 0.052,-0.14 h -1.233 l 0.05,0.145 h 1.077 l 0.027,2.145 h -1.862 l -1.634,-1.119 v -0.484 c 0.177,0.117 0.6,0.451 0.757,0.566 0,0 0.036,-1.4 0.036,-1.755 0,-0.558 -0.237,-0.528 -0.237,-0.195 v 1.5 l -0.864,-0.619 v -0.647 h -0.777 v 0.09 L 30.909,43.75 h 3.8 l 0.763,0.675 h 8.062 l 0.078,0.119 h 0.032 l -0.035,-0.119 h 1.165 l -0.036,0.119 h 0.032 l 0.078,-0.119 h 5.324 l 0.078,0.119 h 0.033 l -0.036,-0.119 h 1.165 l -0.036,0.119 h 0.033 l 0.078,-0.119 c 0,0 8.066,0.007 8.066,0 l 0.759,-0.671 h 3.8 z M 43.57,44.301 h 1.238 l -0.017,0.057 -1.207,-0.013 z m 6.639,0 h 1.237 l -0.013,0.044 -1.207,0.013 z m -2.484,-0.274 a 3.391,3.391 0 0 1 -0.435,0 z m -13.022,-0.643 0.827,0.787 h 23.955 l 0.827,-0.787 h 4.3 l -0.225,0.161 h -4.094 l -0.812,0.712 -7.949,0.087 0.081,-0.123 h -1.58 l 0.091,0.139 -2.621,0.028 -2.621,-0.028 0.091,-0.139 h -1.58 l 0.081,0.123 -7.949,-0.087 -0.812,-0.712 h -4.086 l -0.225,-0.161 z m 9.606,-1.2 a 0.262,0.262 0 0 1 0.28,0.239 H 44.03 a 0.261,0.261 0 0 1 0.281,-0.234 z m -10.915,-5.364 0.66,0.667 h -0.192 l -0.493,-0.444 -0.493,0.444 h -0.141 z m 0.432,0.667 h -0.915 l 0.458,-0.334 z m -0.851,0.563 v -0.238 c 0,-0.293 0.4,-0.163 0.628,-0.19 0.2,0 0.157,0.3 0.158,0.428 l 0.248,0.6 c 0.044,0.108 -0.048,0.172 -0.14,0.153 -0.169,0.021 -0.274,0.178 -0.476,0.158 -0.2,0.02 -0.307,-0.136 -0.476,-0.158 -0.106,0.008 -0.247,0 -0.2,-0.153 z m -1.346,0.748 c -0.2,-0.021 -0.315,0.18 -0.54,0.158 -0.2,0.02 -0.307,-0.136 -0.476,-0.158 -0.106,0.008 -0.247,0 -0.2,-0.153 l 0.253,-0.6 v -0.238 c 0,-0.293 0.4,-0.163 0.628,-0.19 a 0.176,0.176 0 0 1 0.158,0.19 v 0.238 l 0.248,0.6 a 0.105,0.105 0 0 1 -0.068,0.157 z m 3.963,3.316 a 6.964,6.964 0 0 0 0.035,1.312 c 0,-1.414 0.131,-1.295 0.131,-1.295 0.003,-0.27 -0.163,-0.488 -0.163,-0.011 z m -0.55,-0.413 a 6.977,6.977 0 0 0 0.035,1.312 c 0,-1.414 0.131,-1.294 0.131,-1.294 0.003,-0.27 -0.163,-0.489 -0.163,-0.017 z m 44.3,-4.251 h -0.61 v 1.635 h 0.61 z m -17.769,4.48 h 0.24 v -0.374 h -0.24 z m 17.159,-1.077 h 0.61 v -1.635 h -0.61 z m -0.131,-3.4 h -0.61 v 1.635 h 0.61 z m -62.192,3.4 h 0.61 v -1.635 h -0.61 z m -0.74,0 h 0.61 v -1.635 h -0.61 z m 0.61,-3.4 h -0.61 v 1.635 h 0.61 z m 61.712,3.4 h 0.61 v -1.635 h -0.61 z M 64.268,41.93 h 0.24 v -0.374 h -0.24 z m -0.341,0 h 0.24 v -0.374 h -0.24 z m 9.043,-1.077 h 0.61 v -1.635 h -0.61 z m -8.461,0.251 c 0.083,0 0.078,0.025 0.076,-0.069 h -0.733 v 0.069 h 0.076 v 0.373 h 0.24 v -0.373 h 0.1 v 0.373 h 0.24 z M 73.58,37.45 h -0.61 v 1.635 h 0.61 z m 0.74,0 h -0.61 v 1.635 h 0.61 z m -0.61,3.4 h 0.61 v -1.635 h -0.61 z m -14.325,2.573 a 6.966,6.966 0 0 0 0.035,-1.312 c 0,-0.477 -0.166,-0.258 -0.166,0.017 0.005,0.009 0.136,-0.111 0.136,1.304 z m -17.144,1.41 c 0,0.309 -0.348,0.321 -0.348,0 0,-0.291 -0.451,0.379 -0.451,0.379 h 1.232 c 0,0 -0.428,-0.674 -0.428,-0.371 z m -1.814,0 c 0,0.309 -0.348,0.321 -0.348,0 0,-0.291 -0.451,0.379 -0.451,0.379 h 1.232 c 0,0 -0.428,-0.674 -0.428,-0.371 z m 4.306,-0.263 h -1.1 v 0.062 h 1.1 z m -0.862,0.6 c 0.16,0 0.175,-0.389 0.332,-0.389 0.157,0 0.16,0.389 0.331,0.389 0.148,0 0.206,-0.484 0.206,-0.484 h -1.12 c 0,0 0.096,0.49 0.256,0.49 z m -0.033,2.034 h 0.635 v -0.039 h -0.635 z m 2.137,-1.418 H 45.32 v 1.416 h 0.655 z m -3.577,0 h -0.656 v 1.416 h 0.656 z m -3.629,0 h -0.655 v 1.416 h 0.655 z m -3.928,-1.093 h 0.228 a 0.215,0.215 0 0 1 0.238,-0.24 c -0.349,-0.079 -0.461,0.04 -0.461,0.249 z m -1.915,-0.827 a 0.579,0.579 0 0 0 -0.089,0.007 0.525,0.525 0 0 1 0.418,0.369 h 0.146 a 0.434,0.434 0 0 0 -0.47,-0.368 z m 4.028,1.92 h -0.655 v 1.416 h 0.655 z m 8.864,-0.952 c 0,0.309 -0.348,0.321 -0.348,0 0,-0.291 -0.451,0.379 -0.451,0.379 h 1.233 c 0,0 -0.429,-0.675 -0.429,-0.372 z m -7.206,0 c 0,0.309 -0.348,0.321 -0.348,0 0,-0.291 -0.451,0.379 -0.451,0.379 h 1.233 c 0,0 -0.428,-0.675 -0.428,-0.372 z m 1.97,0.952 h -0.656 v 1.416 h 0.656 z m -3.785,-0.952 c 0,0.309 -0.348,0.321 -0.348,0 0,-0.291 -0.451,0.379 -0.451,0.379 h 1.233 c 0,0 -0.428,-0.675 -0.428,-0.372 z m 21.762,0 c 0,0.326 -0.348,0.314 -0.348,0 0,-0.314 -0.433,0.374 -0.433,0.374 h 1.232 c 0,0 -0.445,-0.663 -0.445,-0.372 z m -2.318,2.365 h 0.655 V 45.79 h -0.655 z m -1.31,-2.365 c 0,0.326 -0.348,0.314 -0.348,0 0,-0.314 -0.433,0.374 -0.433,0.374 h 1.235 c 0,0 -0.449,-0.663 -0.449,-0.372 z m 1.814,0 c 0,0.326 -0.348,0.314 -0.348,0 0,-0.314 -0.433,0.374 -0.433,0.374 h 1.233 c 0,0 -0.446,-0.663 -0.446,-0.372 z m 1.31,2.365 h 0.656 V 45.79 h -0.656 z m 1.838,-1.866 c 0,0 0.195,-0.12 0.195,1.295 h 0.052 v -1.312 c 0.006,-0.475 -0.241,-0.255 -0.241,0.02 z m -12.389,-0.179 1.083,-0.072 h -2.165 z m 6.922,2.045 h 0.655 V 45.79 h -0.655 z m 5.276,-2.742 a 0.215,0.215 0 0 1 0.238,0.24 h 0.228 c 0.006,-0.204 -0.106,-0.323 -0.459,-0.237 z m -8.327,0.118 h -1.1 v 0.062 h 1.11 z m -1.837,0.258 c 0,0.326 -0.348,0.314 -0.348,0 0,-0.314 -0.433,0.374 -0.433,0.374 h 1.233 c 0,0 -0.445,-0.662 -0.445,-0.371 z m -0.5,2.365 h 0.655 v -1.409 h -0.655 z m 1.441,-2.025 c 0.171,0 0.175,-0.389 0.331,-0.389 0.156,0 0.172,0.389 0.332,0.389 0.16,0 0.251,-0.484 0.251,-0.484 h -1.119 c 0,0 0.06,0.487 0.211,0.487 z m 2.136,2.025 h 0.656 v -1.409 h -0.656 z m -2.076,0.009 h 0.635 v -0.039 h -0.635 z m 2.58,-2.374 c 0,0.326 -0.348,0.314 -0.348,0 0,-0.314 -0.433,0.374 -0.433,0.374 h 1.232 c 0,0 -0.448,-0.662 -0.448,-0.371 z m -18.248,0.482 v 1.312 h 0.052 c 0,-1.415 0.2,-1.295 0.2,-1.295 -0.002,-0.271 -0.249,-0.491 -0.249,-0.014 z M 2.83,36.133 a 0.325,0.325 0 0 0 0.289,0.158 7.834,7.834 0 0 1 -0.59,-1.765 c -0.443,-1.967 0.025,-4 0.015,-5.987 0.128,2.568 -0.453,5.294 0.654,7.72 l -0.033,0.029 a 0.455,0.455 0 0 0 0.3,-0.3 8.748,8.748 0 0 0 -1.053,-9.135 c -1.138,2.207 -1.865,6.218 0.421,9.283 z m 2.133,3.354 a 6.547,6.547 0 0 1 -1.729,2.885 0.281,0.281 0 0 0 0.3,0 6.094,6.094 0 0 0 2.457,-2.831 10.518,10.518 0 0 0 0.464,-5.018 C 3.947,35.647 2.646,38.65 3.009,41.954 a 0.557,0.557 0 0 0 0.184,0.4 9.1,9.1 0 0 0 1.639,-2.944 c 0.392,-1.121 0.565,-2.4 1.041,-3.488 -0.388,1.146 -0.526,2.411 -0.906,3.569 z m 10.8,-28.731 c 2.337,-0.54 3.8,-2.686 5.609,-4.09 -1.352,1.176 -2.463,2.806 -4.084,3.639 -0.256,0.279 -2.062,0.541 -1.251,0.7 3.561,0.212 5.876,-3.446 6.555,-5.241 a 5.78,5.78 0 0 0 -4.051,1.084 9.993,9.993 0 0 0 -2.727,3.5 c -0.102,0.122 -0.071,0.574 -0.052,0.412 z M 2.725,49.844 A 0.322,0.322 0 0 0 3.067,49.881 6.3,6.3 0 0 1 2.084,48.347 C 1.202,46.486 1.32,44.272 0.914,42.288 c 0.655,2.5 0.51,5.429 2.231,7.527 l -0.03,0.044 a 0.646,0.646 0 0 0 0.261,-0.427 c 0.838,-3.714 -0.232,-7.211 -2.94,-8.789 -0.643,2.232 -1.038,6.838 2.289,9.201 z m 22.07,29.737 a 0.29,0.29 0 0 0 0.323,-0.107 l -0.034,0.015 c -0.552,-2.328 -2.389,-3.73 -3.79,-5.51 1.552,1.637 3.4,3.088 3.85,5.453 a 0.608,0.608 0 0 0 0.073,-0.386 c -0.3,-3.227 -2.084,-5.805 -4.754,-6.261 0.054,1.917 0.959,5.904 4.332,6.796 z m -6.228,-4.352 a 7.528,7.528 0 0 0 -4.719,-0.513 8.056,8.056 0 0 0 3.255,3.6 7.25,7.25 0 0 0 4.119,0.616 c 1,-0.267 -1.117,-0.27 -1.43,-0.516 -1.782,-0.551 -3.04,-2.006 -4.566,-2.987 1.09,0.534 1.977,1.415 3.009,2.038 a 9.182,9.182 0 0 0 3.33,1.23 0.46,0.46 0 0 0 -0.028,-0.426 7.7,7.7 0 0 0 -2.971,-3.041 z M 13.23,70.906 c -2.466,-0.445 -3.687,-2.888 -5.226,-4.589 1.677,1.558 2.88,3.908 5.265,4.493 l -0.007,0.051 a 0.623,0.623 0 0 0 0.04,-0.48 8.4,8.4 0 0 0 -2.234,-3.813 5.757,5.757 0 0 0 -4.207,-1.238 9.1,9.1 0 0 0 2.408,4.478 5.605,5.605 0 0 0 3.646,1.269 0.382,0.382 0 0 0 0.314,-0.17 z m -6.008,-9.23 c -2.561,-0.983 -3.34,-3.948 -4.649,-6.089 1.476,2.021 2.266,4.864 4.7,5.987 l -0.016,0.057 a 0.783,0.783 0 0 0 0.12,-0.542 10.12,10.12 0 0 0 -1.683,-4.713 5.672,5.672 0 0 0 -4.144,-2.1 11.089,11.089 0 0 0 1.754,5.5 5.594,5.594 0 0 0 3.56,2.045 0.386,0.386 0 0 0 0.357,-0.144 z M 4.803,30.623 c 1.86,-1.27 2.444,-3.623 3.559,-5.46 -0.985,1.913 -1.56,4.346 -3.514,5.529 a 0.264,0.264 0 0 0 0.279,0.048 5.727,5.727 0 0 0 2.743,-2.21 9.881,9.881 0 0 0 1.262,-4.563 5.675,5.675 0 0 0 -3.2,2.357 9.266,9.266 0 0 0 -1.222,3.942 0.524,0.524 0 0 0 0.1,0.4 z M 17.957,28.975 H 16.37 l -1.847,2.353 -2.66,2.012 h 1.257 l 11.725,0.043 4.689,4.588 h -0.367 v -0.059 h 0.218 l -4.537,-4.243 -11.666,-0.015 -1.054,-0.178 0.995,0.666 11.725,0.01 4.213,3.76 v 0.3 l 0.563,-0.082 0.443,-0.069 -4.656,-4.6 -1.147,-1.459 -3.179,-9.479 -3.851,5.358 1.085,1.1 h -0.3 l -0.863,-0.777 -1.125,1.013 1.125,-0.819 z m 3.28,-1.165 1.154,1.165 h -0.336 l -0.862,-0.777 -0.863,0.777 h -0.245 z m 0.755,1.165 h -1.6 l 0.8,-0.583 z m -1.932,2.027 0.443,-1.04 c 0,-0.235 -0.069,-0.748 0.277,-0.75 h 0.821 c 0.346,0 0.273,0.513 0.277,0.75 l 0.434,1.04 a 0.184,0.184 0 0 1 -0.133,0.268 c -0.357,-0.037 -0.551,0.316 -0.944,0.276 -0.353,0.036 -0.536,-0.239 -0.832,-0.276 -0.192,0.008 -0.423,0.026 -0.343,-0.268 z m -1.778,0 c 0.072,0.2 -0.074,0.3 -0.245,0.268 -0.3,0.037 -0.479,0.312 -0.832,0.276 -0.353,0.036 -0.536,-0.239 -0.833,-0.276 -0.192,0.007 -0.424,0.025 -0.343,-0.268 l 0.443,-1.04 c 0,-0.235 -0.068,-0.748 0.277,-0.75 h 0.821 c 0.346,0 0.273,0.513 0.277,0.75 z m -1.5,-0.384 h 0.763 v -1.073 h -0.763 z m 4.794,-1.073 h -0.763 v 1.073 h 0.763 z M 6.176,25.104 C 5.307,22.742 6.511,20.261 6.992,17.942 6.677,20.284 5.538,22.705 6.264,25.076 l -0.04,0.026 a 0.59,0.59 0 0 0 0.368,-0.27 c 1.993,-2.826 2.3,-6.194 0.567,-8.445 a 10.872,10.872 0 0 0 -2.094,4.788 6.2,6.2 0 0 0 0.835,3.779 0.292,0.292 0 0 0 0.272,0.148 z m 4.009,36.385 a 9.171,9.171 0 0 1 0.084,3.779 0.465,0.465 0 0 0 0.225,-0.286 10.137,10.137 0 0 0 0.487,-4.428 7.929,7.929 0 0 0 -2.051,-4.175 c -0.935,2.129 -1.409,6.041 0.971,8.786 a 0.3,0.3 0 0 0 0.327,0.122 l -0.036,-0.01 a 10.349,10.349 0 0 0 -0.143,-3.729 c -0.247,-1.219 -0.727,-2.335 -0.887,-3.58 0.253,1.223 0.752,2.3 1.023,3.521 z m 6.588,-25.745 c 0,0.713 -0.8,0.74 -0.8,-0.012 0,-0.67 -1.04,0.875 -1.04,0.875 h 2.84 c 0,0 -1.002,-1.562 -1.002,-0.863 z M 10.927,15.202 c 0.09,-2.369 1.761,-4.243 2.9,-6.2 -0.728,1.569 -1.945,2.935 -2.463,4.6 -0.213,0.519 -0.242,1.151 -0.4,1.614 a 0.4,0.4 0 0 0 0.356,-0.1 7.7,7.7 0 0 0 3.133,-7.464 9.649,9.649 0 0 0 -3.074,3.528 7.477,7.477 0 0 0 -0.6,3.773 0.287,0.287 0 0 0 0.148,0.249 z M 5.385,54.86 A 0.332,0.332 0 0 0 5.663,54.681 8.6,8.6 0 0 0 6.922,50.529 10.728,10.728 0 0 0 5.56,45.45 a 8.612,8.612 0 0 0 -1.588,4.646 10.392,10.392 0 0 0 1.057,4.493 0.44,0.44 0 0 0 0.312,0.272 c 0.066,-0.553 0.349,-1.211 0.391,-1.845 0.3,-1.949 -0.251,-3.932 -0.21,-5.887 0.184,2.552 0.94,5.279 -0.137,7.731 z m 72.929,16.962 c 0.339,-0.473 0.658,-1.076 0.3,-1.606 -0.132,-0.187 -0.266,0.1 -0.412,0.06 a 3.876,3.876 0 0 1 -0.006,-0.712 c -0.176,-2.429 -1.083,-1.8 -1.538,-0.045 -0.075,0.221 -0.16,0.2 -0.222,0.063 -0.459,-0.711 -0.507,0.87 -0.531,1.142 -0.04,0.363 0.034,0.866 -0.225,0.548 -0.254,-0.257 -0.5,0.15 -0.5,0.447 a 2.17,2.17 0 0 0 0.011,0.471 c 0.022,0.156 0.192,0.4 0.173,0.5 -0.052,0.08 -0.319,-0.283 -0.432,-0.151 -0.162,0.139 -0.152,0.546 -0.116,0.782 0.036,0.236 0.273,0.559 0.249,0.654 -0.024,0.095 -0.091,0.035 -0.175,0.082 -0.084,0.047 -0.147,0.418 -0.2,0.55 -0.17,0.3 -0.356,0.339 -0.31,0.743 0.034,0.161 0.14,0.143 0.14,0.143 a 8.877,8.877 0 0 0 2.38,-4.315 c -0.012,0.062 -0.027,0.173 -0.045,0.252 a 10.109,10.109 0 0 1 -2.147,4.214 c -0.034,0.047 0.126,0.02 0.2,0 a 4.454,4.454 0 0 0 1.577,-1.055 c 0.041,-0.262 -0.22,-0.048 -0.185,-0.222 0.016,-0.088 0.4,-0.083 0.806,-0.21 a 1.218,1.218 0 0 0 0.913,-0.9 c 0.04,-0.245 -0.062,-0.314 -0.182,-0.356 -0.12,-0.042 -0.26,-0.042 -0.307,-0.127 0.082,-0.258 0.562,-0.615 0.779,-0.952 z m -7.776,-17.92 c -0.143,0 -0.459,0 -0.6,0.014 v 0.052 c 0.138,-0.014 0.455,-0.016 0.6,-0.014 z M 26.971,80.973 a 8.434,8.434 0 0 0 -4.861,0.312 9,9 0 0 0 4.156,2.726 8.25,8.25 0 0 0 4.285,-0.12 c 0.923,-0.4 -1.235,-0.064 -1.563,-0.232 -1.918,-0.2 -3.545,-1.317 -5.321,-1.957 1.225,0.3 2.333,0.958 3.524,1.352 a 10.805,10.805 0 0 0 3.645,0.567 0.412,0.412 0 0 0 -0.134,-0.382 8.725,8.725 0 0 0 -3.731,-2.266 z M 84.754,69.536 a 1.886,1.886 0 0 0 -0.863,-0.009 c -0.307,0.05 -0.559,0.18 -0.572,0.107 -0.042,-0.212 0.167,-0.467 -0.008,-0.649 -0.74,-0.629 -1.348,0.92 -1.668,1.382 -0.128,0.213 -0.216,0.35 -0.249,0.314 -0.128,-0.141 -0.01,-0.777 -0.384,-0.7 -0.752,0.282 -0.689,1.586 -1.038,2.139 -0.136,-0.012 0.085,-0.283 -0.117,-0.313 -0.028,0 -0.079,0.035 -0.146,0.1 a 9.3,9.3 0 0 0 -1.245,1.534 19.648,19.648 0 0 0 2.817,-1.126 12.628,12.628 0 0 1 1.342,-0.61 41.732,41.732 0 0 1 -3.759,1.83 c -0.145,0.068 -0.3,0.077 -0.387,0.189 a 0.231,0.231 0 0 0 0.013,0.237 0.384,0.384 0 0 0 0.3,0.167 c 0.052,0 0.228,-0.107 0.339,-0.095 0.111,0.012 0.385,0.13 0.466,0.046 0.25,-0.511 0.227,0.2 0.441,0.476 0.3,0.408 0.735,0.4 0.72,-0.2 0.008,-0.665 0.148,-0.04 0.3,0.178 0.456,0.5 1.022,0.107 0.973,-0.5 -0.012,-0.144 -0.042,-0.247 0.022,-0.309 0.064,-0.062 0.268,-0.011 0.531,0.018 a 1.362,1.362 0 0 0 1.072,-0.255 0.86,0.86 0 0 0 0.264,-0.792 c -0.088,-0.233 -0.28,-0.338 0.016,-0.584 A 6.118,6.118 0 0 0 84.67,71.47 c 0.515,-0.447 0.894,-1.681 0.084,-1.934 z m 4.574,-8.531 c -0.281,0.1 -0.5,0.27 -0.529,0.194 -0.078,-0.216 0.07,-0.518 -0.129,-0.684 a 0.42,0.42 0 0 0 -0.628,0.032 c -0.378,0.275 -0.782,2.083 -0.917,2.042 -0.184,-0.272 -0.22,-1.092 -0.71,-0.51 -0.395,0.583 -0.2,1.631 -0.383,2.2 -0.133,0.008 0.027,-0.308 -0.174,-0.308 -0.124,0.04 -0.386,0.664 -0.517,0.89 -0.149,0.3 -0.494,0.873 -0.458,1.079 a 31,31 0 0 0 2.786,-1.9 6.392,6.392 0 0 1 0.827,-0.524 14.915,14.915 0 0 0 -1.507,1.156 c -0.622,0.522 -1.343,1.035 -1.982,1.485 -0.051,0.1 -0.109,0.129 0.02,0.322 0.316,0.274 0.382,0.012 0.622,-0.051 0.108,-0.008 0.4,0.062 0.452,-0.039 0.052,-0.101 0.025,-0.219 0.1,-0.217 0.075,0.002 0.261,0.475 0.425,0.63 0.164,0.155 0.465,0.339 0.622,0.122 0.136,-0.155 -0.08,-0.679 -0.014,-0.772 0.078,0 0.236,0.36 0.348,0.45 0.112,0.09 0.585,0.38 0.79,-0.092 0.191,-0.367 -0.086,-0.656 -0.022,-0.895 0.287,-0.14 0.937,0.055 1.327,-0.3 a 0.771,0.771 0 0 0 0.14,-1.082 c -0.181,-0.134 -0.077,-0.407 0.116,-0.584 a 4.687,4.687 0 0 0 0.5,-0.683 c 0.703,-1.111 0.341,-2.531 -1.105,-1.964 z m 5.316,-17.859 c 0.477,-0.97 0.479,-3.554 -1.068,-1.988 -0.212,0.218 -0.355,0.483 -0.391,0.422 -0.11,-0.188 -0.044,-0.535 -0.229,-0.594 -0.239,-0.075 -0.4,0.067 -0.5,0.312 -0.249,0.408 -0.245,2.353 -0.356,2.377 -0.15,-0.06 -0.282,-0.716 -0.533,-0.426 a 1.009,1.009 0 0 0 -0.19,0.629 c -0.051,0.589 0.212,1.394 0.2,1.929 -0.1,0.076 -0.048,-0.307 -0.206,-0.206 a 8.371,8.371 0 0 0 -0.253,1.387 c -0.059,0.3 -0.151,0.952 -0.071,0.989 0.822,-1.315 1.45,-2.8 2.337,-4.073 a 25.7,25.7 0 0 0 -1.322,2.521 c -0.273,0.563 -0.6,1.175 -0.879,1.705 -0.011,0.1 -0.066,0.175 0.09,0.3 0.312,0.095 0.308,-0.2 0.48,-0.378 0.082,-0.065 0.324,-0.149 0.345,-0.276 -0.04,-0.586 0.223,-0.009 0.51,0.114 0.164,0.058 0.443,0.076 0.516,-0.209 0.079,-0.17 -0.208,-0.6 -0.184,-0.717 0.06,-0.044 0.267,0.217 0.376,0.243 0.514,0.131 0.777,-0.539 0.495,-1.028 -0.066,-0.113 -0.131,-0.181 -0.108,-0.273 0.209,-0.275 0.8,-0.454 0.99,-0.919 a 0.788,0.788 0 0 0 -0.106,-1.039 c -0.269,-0.112 -0.05,-0.5 0.057,-0.802 z m -1.615,8.73 c -0.269,0.126 -0.479,0.326 -0.5,0.251 -0.066,-0.23 0.085,-0.544 -0.089,-0.678 a 0.389,0.389 0 0 0 -0.588,0.1 c -0.433,0.467 -0.62,1.677 -0.941,2.151 -0.137,-0.124 -0.111,-0.812 -0.436,-0.64 -0.658,0.479 -0.419,1.814 -0.629,2.453 -0.123,0.026 0.03,-0.314 -0.156,-0.288 a 10.616,10.616 0 0 0 -0.723,1.429 1.628,1.628 0 0 0 -0.217,0.677 c 1.167,-0.862 2.177,-1.985 3.359,-2.823 -0.94,0.738 -2.178,2.138 -3.267,3.029 0.019,0.028 -0.126,0.137 0.024,0.327 0.291,0.234 0.356,-0.056 0.576,-0.143 0.1,-0.023 0.368,0.008 0.423,-0.1 0.055,-0.108 0.025,-0.225 0.1,-0.234 0.075,-0.009 0.239,0.444 0.386,0.573 0.147,0.129 0.429,0.276 0.572,0.035 0.124,-0.208 -0.07,-0.755 0,-0.767 0.07,-0.012 0.211,0.326 0.313,0.4 a 0.667,0.667 0 0 0 0.331,0.116 0.4,0.4 0 0 0 0.4,-0.309 c 0.189,-0.5 -0.1,-0.725 0,-0.878 0.1,-0.153 0.756,-0.009 1.236,-0.449 a 0.8,0.8 0 0 0 0.157,-1.062 c -0.106,-0.091 -0.126,-0.252 0.028,-0.458 a 5.893,5.893 0 0 0 0.588,-0.847 c 0.618,-1 0.55,-2.633 -0.947,-1.865 z m -22.221,30.3 a 2.579,2.579 0 0 0 -0.924,-0.312 c -0.349,-0.063 -0.671,-0.04 -0.655,-0.108 0.035,-0.2 0.363,-0.341 0.247,-0.561 a 0.582,0.582 0 0 0 -0.665,-0.271 c -0.492,0.007 -1.927,1.087 -2.055,0.994 -0.068,-0.188 0.288,-0.657 -0.126,-0.727 -0.741,-0.146 -1.368,1 -1.884,1.327 -0.069,-0.032 -0.02,-0.08 0.02,-0.135 0.04,-0.055 0.072,-0.115 -0.028,-0.166 a 1.528,1.528 0 0 0 -0.587,0.179 l 0.115,-0.095 c -0.335,0.251 -0.863,0.528 -0.964,0.959 1.225,-0.492 2.451,-0.224 3.752,-0.252 0.195,0.01 0.355,0.026 0.524,0.048 a 21.265,21.265 0 0 0 -2.14,0.021 4.514,4.514 0 0 0 -1.709,0.222 c -0.129,0.052 -0.283,0.081 -0.354,0.188 -0.08,0.2 0.313,0.292 0.416,0.265 0.053,-0.005 0.2,-0.1 0.305,-0.09 0.105,0.01 0.407,0.1 0.463,0.05 0.056,-0.05 0.028,-0.128 0.1,-0.109 0.038,0.01 0.1,0.1 0.177,0.2 a 1.161,1.161 0 0 0 0.846,0.511 c 0.1,-0.018 -0.094,-0.371 -0.03,-0.368 a 2.154,2.154 0 0 0 0.854,0.676 2.311,2.311 0 0 0 1.314,0.47 c 0.4,0.03 0.853,-0.308 0.738,-0.67 -0.061,-0.135 0,-0.264 0.276,-0.316 0.719,-0.126 1.831,-0.382 2.193,-1.134 A 0.584,0.584 0 0 0 70.808,82.18 Z m -33.784,4.535 a 12.1,12.1 0 0 0 6,0.083 0.482,0.482 0 0 0 -0.23,-0.4 9.039,9.039 0 0 0 -4.471,-1.621 8.789,8.789 0 0 0 -5.071,1.572 9.385,9.385 0 0 0 5.026,2.033 8.529,8.529 0 0 0 4.506,-1.21 0.449,0.449 0 0 0 0.231,-0.323 7.654,7.654 0 0 1 -1.938,0.452 c -2.081,0.25 -4.056,-0.6 -6.082,-0.873 a 11.246,11.246 0 0 1 2.029,0.292 z m -1.537,-2.828 a 10.166,10.166 0 0 0 -2.373,-2.517 c -0.9,-0.667 -1.882,-1.062 -2.733,-1.814 1.383,0.953 2.961,1.472 4.08,2.8 0.3,0.166 1.311,2.141 1.011,1.087 -1.114,-3.043 -3.5,-5.077 -6.2,-4.832 a 10.1,10.1 0 0 0 2.582,4.181 5.494,5.494 0 0 0 3.348,1.277 0.288,0.288 0 0 0 0.283,-0.178 z m 8.522,-1.206 a 5.264,5.264 0 0 0 -3.6,-0.529 6.941,6.941 0 0 0 2.485,3.108 5.11,5.11 0 0 0 3.145,0.6 0.316,0.316 0 0 0 0.261,-0.192 l -0.026,0.023 c -1.162,-1.651 -3.136,-2.035 -4.814,-2.915 1.75,0.716 3.762,1.124 4.852,2.851 a 0.436,0.436 0 0 0 -0.033,-0.32 6.522,6.522 0 0 0 -2.269,-2.622 z m 19.355,0.224 c 0.245,-0.352 -0.193,-0.472 -0.252,-0.715 -0.01,-0.1 0.534,-0.169 1.038,-0.412 a 1.159,1.159 0 0 0 0.808,-1.28 c -0.025,-0.121 -0.088,-0.135 -0.16,-0.135 -0.421,0.032 -0.111,-0.207 0.019,-0.686 0.49,-1.6 0.122,-2.666 -1.23,-0.918 -0.146,0.151 -0.213,0.084 -0.212,-0.078 -0.02,-0.287 -0.2,-0.49 -0.516,-0.113 -0.3,0.288 -0.6,1.14 -0.812,1.368 -0.1,0.042 -0.085,-0.222 -0.235,-0.324 a 7.872,7.872 0 0 0 -1.172,-0.014 0.849,0.849 0 0 0 -0.685,0.927 0.754,0.754 0 0 0 0.154,0.261 c 0.205,0.275 0.076,0.282 -0.231,0.146 a 0.666,0.666 0 0 0 -0.513,-0.033 0.64,0.64 0 0 0 -0.264,0.783 c 0.024,0.167 0.421,0.432 0.4,0.578 -0.046,0.1 -0.148,0.048 -0.285,0.108 -0.137,0.06 -0.231,0.432 -0.292,0.559 -0.061,0.127 -0.282,0.306 -0.316,0.368 -0.08,0.124 -0.125,0.475 0.088,0.5 0.08,0.017 0.116,-0.032 0.173,-0.056 a 10.734,10.734 0 0 1 1.8,-1.554 c 0.171,-0.16 0.284,-0.1 0.536,-0.1 a 6.754,6.754 0 0 0 1.963,-1.707 7.108,7.108 0 0 1 -2,1.876 l -0.343,-0.015 a 10.418,10.418 0 0 0 -1.8,1.647 c -0.036,0.034 0.063,0.008 0.094,0.008 0.5,-0.12 1.1,-0.437 1.634,-0.558 a 1.287,1.287 0 0 0 0.687,-0.121 c 0.138,-0.2 -0.176,-0.157 -0.089,-0.305 0.072,-0.056 0.379,0.12 0.523,0.162 0.484,0.193 1.168,0.334 1.491,-0.166 z m -3.24,3.159 a 3.1,3.1 0 0 0 -1.04,-0.433 c -0.4,-0.1 -0.767,-0.109 -0.744,-0.183 a 0.842,0.842 0 0 1 0.232,-0.293 c 0.362,-0.379 -0.32,-0.744 -0.659,-0.666 -0.56,-0.042 -2.274,1.013 -2.417,0.9 -0.063,-0.22 0.369,-0.7 -0.1,-0.815 -0.833,-0.234 -1.624,0.966 -2.242,1.284 -0.077,-0.042 -0.018,-0.09 0.032,-0.147 0.195,-0.322 -0.318,-0.166 -0.706,-0.045 0.31,-0.2 -0.119,0.051 -0.25,0.124 -0.26,0.185 -0.756,0.444 -0.761,0.745 1.445,-0.419 2.817,0 4.3,0.087 0.223,0.03 0.407,0.063 0.6,0.1 -0.793,-0.129 -1.642,-0.133 -2.454,-0.183 a 5.05,5.05 0 0 0 -2.337,0.19 c 0.039,0.009 -0.181,0.086 0.017,0.27 0.357,0.237 0.428,0.063 0.747,0.057 0.124,0.014 0.46,0.147 0.527,0.1 0.067,-0.047 0.04,-0.139 0.127,-0.11 0.123,0.082 0.309,0.453 0.46,0.554 0.209,0.168 0.837,0.6 0.678,0.1 -0.029,-0.1 -0.061,-0.2 -0.021,-0.183 a 2.537,2.537 0 0 0 0.937,0.829 c 0.368,0.336 1.648,1.039 2.26,0.384 0.313,-0.358 -0.2,-0.65 0.441,-0.73 0.816,-0.072 2.106,-0.231 2.584,-1.041 a 0.645,0.645 0 0 0 -0.21,-0.89 z m -7.828,-0.687 c 0.231,-0.278 -0.145,-0.44 -0.177,-0.652 0,-0.089 0.467,-0.078 0.913,-0.225 a 1.335,1.335 0 0 0 0.582,-0.347 c 0.14,-0.116 0.343,-0.723 0.052,-0.8 -0.359,-0.024 -0.088,-0.189 0.053,-0.592 0.491,-1.26 0.284,-2.33 -1,-0.954 -0.134,0.112 -0.188,0.046 -0.178,-0.095 -0.067,-0.795 -0.764,0.187 -0.917,0.492 -0.134,0.224 -0.237,0.413 -0.292,0.427 -0.087,0.024 -0.06,-0.2 -0.184,-0.311 l -0.7,-0.136 a 0.7,0.7 0 0 0 -0.946,0.689 c -0.006,0.106 0.235,0.353 0.185,0.451 -0.128,0.032 -0.52,-0.314 -0.711,-0.2 a 0.525,0.525 0 0 0 -0.27,0.645 c 0.012,0.148 0.338,0.427 0.315,0.554 -0.044,0.078 -0.129,0.022 -0.251,0.057 -0.122,0.035 -0.221,0.347 -0.28,0.448 -0.182,0.234 -0.441,0.292 -0.348,0.626 0.171,0.284 0.383,-0.065 0.552,-0.174 a 8.559,8.559 0 0 1 1.482,-0.947 l 0.319,0.062 a 5.581,5.581 0 0 0 1.646,-1.082 c 0.045,-0.044 0.1,-0.112 0.132,-0.148 a 4.686,4.686 0 0 1 -1.274,1.068 c -0.178,0.11 -0.359,0.206 -0.548,0.3 l -0.293,-0.057 a 7.964,7.964 0 0 0 -1.644,1.21 c 0.471,0.017 1.031,-0.239 1.525,-0.267 0.246,0.056 0.8,0.069 0.579,-0.176 -0.042,-0.036 -0.088,-0.064 -0.043,-0.117 0.44,0.123 1.216,0.836 1.722,0.255 z M 9.196,19.779 c 2.12,-0.761 3.279,-2.89 4.821,-4.386 -1.142,1.232 -2.013,2.848 -3.437,3.792 -0.216,0.288 -1.893,0.745 -1.1,0.79 3.345,-0.252 5.1,-3.737 5.583,-5.545 a 5.673,5.673 0 0 0 -3.689,1.475 9.272,9.272 0 0 0 -2.177,3.506 0.525,0.525 0 0 0 0,0.411 z m 15.289,16.546 h 0.355 l 0.212,0.191 0.028,-0.041 -0.224,-0.2 h -0.371 z m 0,-0.9 h 0.355 l 0.212,0.193 0.028,-0.041 -0.224,-0.205 h -0.371 z m 0,0.448 h 0.355 l 0.212,0.193 0.028,-0.041 -0.224,-0.2 h -0.371 z m 0,0.9 h 0.356 l 0.229,0.168 0.024,-0.044 -0.24,-0.176 h -0.369 z m 0,1.346 h 0.356 l 0.212,0.16 0.025,-0.044 -0.224,-0.169 h -0.369 z m 0,-0.9 h 0.356 l 0.229,0.169 0.024,-0.044 -0.24,-0.178 h -0.369 z m 0,0.448 h 0.356 l 0.212,0.148 0.024,-0.044 -0.224,-0.156 h -0.368 z m -3.787,3.188 h 0.61 V 39.22 h -0.61 z m 4.382,-6.175 -0.224,-0.2 h -0.371 v 0.052 h 0.355 l 0.212,0.193 z m -0.595,3.884 h 0.356 l 0.212,0.157 0.024,-0.044 -0.224,-0.164 h -0.368 z m -3.047,2.291 h 0.61 V 39.22 h -0.61 z m -0.131,-3.4 h -0.61 v 1.635 h 0.61 z m 0.741,0 h -0.61 v 1.635 h 0.61 z m 2.437,-2.477 h 0.355 l 0.212,0.194 0.028,-0.041 -0.224,-0.205 h -0.371 z m -2.69,0.765 c 0,0.713 -0.8,0.74 -0.8,-0.012 0,-0.67 -1.04,0.875 -1.04,0.875 h 2.84 c 0,0 -1.002,-1.561 -1.002,-0.862 z m 4.223,5.269 v -2.729 l -0.367,-0.289 v 2.775 z m 1.158,0.767 V 39.202 L 26.844,38.94 v 2.623 z m -0.062,-3.932 c 0,0.542 -0.2,0.4 -0.2,-0.178 0,-0.515 -0.256,0.462 -0.256,0.462 l 0.7,0.574 c 0,0 -0.246,-1.389 -0.246,-0.857 z m 0.166,4.592 c 0.025,-1.121 -0.059,-2.262 0.051,-3.368 l 0.029,-0.218 -0.694,-0.565 c -0.02,0.412 0.288,0.44 0.588,0.73 0.023,0.018 -0.051,3.435 0.024,3.422 z m 0.9,-3.681 c 0,0.515 -0.165,0.4 -0.167,-0.151 0,-0.488 -0.216,0.459 -0.216,0.459 l 0.594,0.487 c 0,0 -0.213,-1.299 -0.206,-0.793 z m -2.233,-1.906 c 0,0.573 -0.218,0.416 -0.218,-0.2 0,-0.544 -0.283,0.479 -0.283,0.479 l 0.772,0.633 c 0,0 -0.271,-1.472 -0.271,-0.91 z m 1.855,2.362 c -0.02,0.383 0.245,0.4 0.5,0.646 l 0.021,3.242 c 0.061,-1.055 -0.012,-1.774 0,-2.908 a 2.708,2.708 0 0 0 0.063,-0.5 z m 0.158,3.084 0.294,0.194 -0.014,-2.455 -0.285,-0.224 0.005,2.489 z m -3.475,-2.384 h 0.356 l 0.229,0.155 0.023,-0.045 -0.24,-0.163 h -0.368 z m 0,-0.9 h 0.356 l 0.229,0.164 0.024,-0.044 -0.24,-0.172 h -0.369 z m 0,1.346 h 0.357 l 0.229,0.151 0.023,-0.046 -0.24,-0.158 h -0.369 z m 0,-0.9 h 0.356 l 0.212,0.15 0.024,-0.044 -0.224,-0.158 h -0.368 z m 1.647,2.249 v -3.242 l 0.054,-0.147 a 1.915,1.915 0 0 1 0.033,-0.4 l -0.766,-0.623 c -0.019,0.439 0.306,0.467 0.649,0.794 v 3.6 z m -1.779,-9.935 4.376,4.717 -0.668,-1.423 v -1 l 0.15,0.073 -0.285,-0.633 -0.32,0.249 0.277,-0.043 0.087,0.218 v 1.438 l -0.455,-0.559 v -0.909 l -0.136,-0.289 h 0.169 l 0.412,-0.393 0.518,1.027 -0.461,-1.195 h -0.4 l -0.105,0.128 -0.459,-1.189 h -0.4 l -0.024,0.028 -0.559,-1.191 0.054,-0.052 0.518,1.027 -0.461,-1.195 h -0.216 l -2.542,-5.416 -2.1,-2.674 z m 2.643,0.384 0.515,1.022 -0.214,0.26 -0.212,-0.438 0.156,0.076 -0.284,-0.633 -0.1,0.076 -0.077,-0.164 z m -0.243,0.518 0.168,-0.026 0.132,0.332 c 0.027,-0.008 0,1.452 0.009,1.457 l -0.309,-0.425 z m -0.8,-1.394 0.04,-0.006 0.385,0.891 v 1.538 l -0.425,-0.522 z m -1.468,9.529 h 0.357 l 0.229,0.146 0.022,-0.046 -0.24,-0.153 h -0.368 z m 0,0.448 h 0.357 l 0.23,0.142 0.021,-0.046 -0.235,-0.145 H 24.485 Z M 77.71,77.888 A 2.337,2.337 0 0 0 76.868,77.62 c -0.311,-0.05 -0.587,-0.02 -0.582,-0.084 0.01,-0.19 0.272,-0.336 0.144,-0.535 -0.375,-0.512 -0.9,-0.15 -1.326,0.124 -0.676,0.43 -1.086,1.036 -0.937,0.251 0.008,-0.143 -0.022,-0.272 -0.208,-0.3 -0.666,-0.116 -1.064,0.983 -1.469,1.3 -0.064,-0.028 -0.027,-0.074 0,-0.127 0.027,-0.053 0.048,-0.11 -0.045,-0.156 0,-0.085 -0.7,0.335 -0.4,0.092 -0.266,0.245 -0.694,0.542 -0.717,0.929 a 6.252,6.252 0 0 1 2.713,-0.337 7.216,7.216 0 0 1 0.975,0.03 c -0.686,-0.036 -1.4,0.059 -2.092,0.092 a 2.4,2.4 0 0 0 -1.5,0.427 c 0,0 -0.028,0.089 0.084,0.168 a 0.5,0.5 0 0 0 0.311,0.071 c 0.045,-0.007 0.158,-0.1 0.254,-0.093 0.096,0.007 0.366,0.081 0.408,0.034 0.042,-0.047 0.008,-0.121 0.077,-0.1 0.1,0.05 0.535,0.689 0.977,0.638 0.086,-0.021 -0.128,-0.348 -0.072,-0.346 a 2.269,2.269 0 0 0 0.826,0.613 c 0.311,0.237 1.374,0.731 1.742,0.111 0.181,-0.317 -0.254,-0.527 0.215,-0.66 a 3.208,3.208 0 0 0 1.434,-0.626 0.746,0.746 0 0 0 0.028,-1.248 z M 73.569,48.354 v -1.635 h -0.61 v 1.635 z m -8.727,4.107 -0.324,-0.393 h -0.28 l -0.324,0.838 0.363,-0.72 0.289,0.276 z m -1.356,-4.844 h -0.265 l -0.306,0.792 0.343,-0.68 0.273,0.26 h 0.26 z m -1.411,1.212 0.129,-0.063 0.088,-0.22 0.184,0.028 -0.212,-0.165 z m 0.7,3.993 -0.282,-0.344 h -0.244 l -0.283,0.731 0.317,-0.629 0.252,0.241 z m -0.527,0.264 0.081,-0.2 0.17,0.027 -0.2,-0.152 -0.174,0.387 z m -0.144,-1.507 c 0.071,-0.028 0.12,0.014 0.144,0.135 0.073,0.379 0.3,0.243 0.343,-0.083 0.026,-0.133 0.067,-0.2 0.145,-0.213 v -0.072 l -0.632,0.164 z m 0.632,-2.928 -0.632,0.275 v 2.376 l 0.632,-0.173 z m 0.38,2.67 c 0.187,-0.076 0.132,0.45 0.316,0.4 0.166,0 0.137,-0.543 0.316,-0.557 v -0.076 l -0.632,0.164 z m 1.156,-0.1 c 0.072,0.43 0.3,0.289 0.343,-0.084 0.019,-0.131 0.068,-0.216 0.117,-0.229 0.049,-0.013 0.021,-0.048 0.027,-0.088 l -0.632,0.164 v 0.079 c 0.076,-0.03 0.12,0.022 0.145,0.158 z m -1.052,1.7 0.088,-0.22 0.184,0.028 -0.212,-0.165 -0.188,0.42 z m 1.017,-0.161 0.093,-0.233 0.195,0.03 -0.225,-0.175 -0.2,0.444 z m 0.07,-5.22 0.184,0.028 -0.212,-0.165 -0.188,0.419 0.129,-0.063 z m 0.453,0.225 -0.632,0.275 v 2.7 l 0.632,-0.173 z m -0.97,4.87 -0.306,-0.372 h -0.265 l -0.306,0.792 0.343,-0.681 0.273,0.261 z m 0.693,-5.533 h -0.264 l -0.306,0.792 0.344,-0.681 0.273,0.261 h 0.26 z m -1.393,1.231 0.129,-0.063 0.088,-0.22 0.184,0.028 -0.212,-0.165 z m -2.8,1.3 0.1,-0.047 0.066,-0.166 0.138,0.021 -0.16,-0.124 z m 0.02,2.4 c 0.119,-0.05 0.089,0.383 0.2,0.339 0.1,0.009 0.085,-0.432 0.2,-0.441 v -0.062 l -0.4,0.1 z m 0.053,1.285 0.066,-0.166 0.139,0.021 -0.16,-0.124 -0.142,0.315 z m 2.105,-5.212 h -0.265 l -0.305,0.792 0.343,-0.68 0.273,0.26 h 0.26 z m 11.825,-1.638 c -0.017,-1.063 -1.329,-1.056 -1.34,0 0,0.003 1.349,0.017 1.34,0.003 z m -13.707,2.62 h -0.201 l -0.23,0.6 0.258,-0.512 0.206,0.2 h 0.2 z m 12.26,8.594 c 0.046,0.1 0.02,-4.277 0.026,-4.345 0,-1.014 -0.274,-1.795 -0.613,-1.745 -0.339,0.05 -0.612,0.873 -0.611,1.838 0.005,1.714 -0.018,2.917 0.037,4.636 l 1.161,0.132 z m -12.135,-8.153 -0.4,0.175 v 2.084 l 0.4,-0.11 z m 1.012,2.077 -0.632,0.164 c 0.005,0.04 -0.018,0.076 0.027,0.057 0.152,-0.027 0.116,0.393 0.289,0.343 0.151,0 0.151,-0.451 0.289,-0.49 0.046,0 0.023,-0.037 0.028,-0.072 z m -0.5,1.617 0.077,-0.193 0.162,0.025 -0.187,-0.145 -0.166,0.368 z m 0.5,-0.251 -0.268,-0.327 h -0.232 l -0.268,0.7 0.3,-0.6 0.24,0.229 z m 0,-3.883 -0.632,0.275 v 2.211 l 0.632,-0.173 z m -0.931,4.015 -0.23,-0.28 h -0.2 l -0.23,0.6 0.258,-0.512 0.206,0.2 z m 0.7,-4.485 H 61.26 l -0.268,0.7 0.3,-0.6 0.24,0.229 h 0.228 z m 0.006,0.409 -0.187,-0.145 -0.166,0.369 0.114,-0.055 0.077,-0.194 z m 2.253,-0.821 -0.632,0.276 v 2.538 l 0.632,-0.173 z m 4.814,3.606 -0.387,-0.47 h -0.335 l -0.387,1 0.434,-0.86 0.345,0.329 z M 65.597,46.53 h -0.312 l -0.354,0.918 0.4,-0.789 0.316,0.3 h 0.3 z m 2.246,5.645 0.111,-0.279 0.232,0.036 -0.268,-0.209 -0.239,0.531 z m 1.144,-0.1 0.127,-0.319 0.266,0.041 -0.308,-0.239 -0.273,0.607 z m -1.113,-1.734 c 0.078,0.521 0.332,0.361 0.379,-0.092 0.022,-0.158 0.075,-0.26 0.13,-0.275 0.055,-0.015 0.024,-0.048 0.03,-0.106 l -0.7,0.181 v 0.095 c 0.085,-0.028 0.13,0.038 0.159,0.202 z m 0.539,-4.166 -0.7,0.3 v 3.281 l 0.7,-0.191 z m -0.491,-0.3 0.218,0.034 -0.251,-0.2 -0.224,0.5 0.153,-0.075 z m 2.618,10.713 h -0.362 l -0.235,-0.012 v 0.052 l 0.236,0.012 h 0.363 z m 0,0.949 v -0.052 a 4.142,4.142 0 0 1 -0.6,-0.025 v 0.052 a 4.214,4.214 0 0 0 0.598,0.033 z m 0,-4.538 a 4.477,4.477 0 0 0 -0.6,0.024 v 0.052 a 4.491,4.491 0 0 1 0.6,-0.024 z m 0,2.692 -0.371,0.006 -0.226,-0.006 v 0.052 c 0.136,0.008 0.459,0 0.6,0 z m 0,-2.243 a 5.708,5.708 0 0 0 -0.6,0.019 v 0.052 a 5.765,5.765 0 0 1 0.6,-0.019 z m 0,2.692 c -0.143,0 -0.457,0 -0.6,-0.006 v 0.052 l 0.236,0.007 h 0.363 z M 68.132,45.358 h -0.313 l -0.362,0.938 0.407,-0.806 0.323,0.308 h 0.308 z M 70.54,57.037 H 70.179 L 69.944,57.02 v 0.052 l 0.236,0.017 h 0.363 z M 69.813,51.658 69.37,51.119 h -0.385 l -0.443,1.147 0.5,-0.986 0.4,0.378 z m -3.854,0.621 -0.342,-0.416 h -0.3 l -0.342,0.887 0.384,-0.762 0.305,0.292 z m -0.638,0.319 0.1,-0.247 0.206,0.032 -0.238,-0.185 -0.211,0.47 z m 1.282,-5.927 0.14,-0.068 0.094,-0.237 0.2,0.031 -0.229,-0.178 z m 0.424,-0.775 h -0.285 l -0.329,0.853 0.37,-0.733 0.294,0.28 h 0.28 z m -1.076,1.347 -0.809,0.352 v 2.865 l 0.809,-0.221 z m -0.559,-0.212 0.213,0.033 -0.246,-0.191 -0.219,0.487 0.15,-0.073 z m -0.064,3.926 c 0.093,0.457 0.386,0.288 0.439,-0.107 0.033,-0.162 0.087,-0.245 0.185,-0.26 v -0.087 l -0.809,0.21 v 0.083 c 0.087,-0.026 0.15,0.023 0.182,0.169 z m 4.071,-5.657 -0.308,-0.239 -0.273,0.608 0.187,-0.091 0.127,-0.319 z m -0.01,-0.675 h -0.383 l -0.443,1.147 0.5,-0.986 0.4,0.378 h 0.376 z m -0.6,5.242 c 0.095,-0.037 0.15,0.03 0.183,0.2 0.036,0.221 0.12,0.365 0.217,0.343 0.222,-0.017 0.166,-0.728 0.4,-0.751 v -0.1 l -0.8,0.207 z m -2.157,0.549 c 0.084,-0.033 0.131,0.028 0.16,0.184 0.079,0.494 0.332,0.335 0.379,-0.092 0.03,-0.17 0.07,-0.256 0.16,-0.27 v -0.093 l -0.7,0.181 z m 2.157,-0.955 0.8,-0.219 v -3.585 l -0.8,0.348 z m -1.437,2.586 -0.391,-0.475 h -0.338 l -0.391,1.013 0.439,-0.87 0.349,0.333 z m -0.022,-5.407 -0.7,0.3 v 3.107 l 0.7,-0.191 z m -0.707,5.772 0.112,-0.281 0.235,0.036 -0.272,-0.211 -0.241,0.536 z M 65.96,38.197 v -0.3 l 4.213,-3.76 11.725,-0.01 0.994,-0.666 -1.054,0.178 -11.666,0.015 -4.537,4.243 h 0.216 v 0.059 h -0.367 l 4.689,-4.588 c 0.57,0 12.852,-0.052 12.983,-0.041 l -2.661,-2.012 -1.847,-2.353 h -1.586 l 0.8,-0.583 1.125,0.819 -1.122,-0.996 -0.863,0.777 h -0.3 l 1.085,-1.1 -3.851,-5.358 -3.184,9.483 -1.146,1.447 -4.655,4.6 c 0.244,0.051 0.767,0.118 1.011,0.151 z m 10.776,-7.2 0.434,-1.04 c 0,-0.235 -0.068,-0.748 0.277,-0.75 h 0.821 c 0.346,0 0.274,0.513 0.277,0.75 l 0.443,1.04 c 0.08,0.293 -0.149,0.275 -0.343,0.268 -0.3,0.038 -0.479,0.312 -0.832,0.276 -0.353,0.036 -0.536,-0.238 -0.832,-0.276 -0.167,0.037 -0.315,-0.063 -0.243,-0.263 z m -1.911,0.268 a 0.674,0.674 0 0 0 -0.469,0.094 1.008,1.008 0 0 1 -1.147,0 0.513,0.513 0 0 0 -0.371,-0.094 0.183,0.183 0 0 1 -0.133,-0.268 l 0.434,-1.04 V 29.54 a 0.309,0.309 0 0 1 0.277,-0.333 h 0.821 a 0.309,0.309 0 0 1 0.277,0.333 v 0.417 l 0.444,1.04 a 0.184,0.184 0 0 1 -0.131,0.274 z m -1.8,-2.295 0.8,-0.583 0.8,0.583 z m 0.755,-1.165 1.154,1.165 h -0.247 l -0.863,-0.777 -0.862,0.777 h -0.337 z m -18.2,-9.5 c 0,0 -0.32,-0.262 -0.377,-0.25 -0.057,0.012 -0.187,0.093 -0.176,0.424 a 3.412,3.412 0 0 0 0.059,0.545 c 0,0 0.05,-0.573 0.499,-0.715 z M 47.268,6.693 c 1.342,0.356 2.039,1.07 3.511,2.093 -0.1,-0.13 1.971,1.825 1.964,1.813 0.466,0.427 -0.1,0.275 -0.8,0.364 a 3.011,3.011 0 0 1 -0.459,-0.02 0.811,0.811 0 0 1 0.3,0.585 1.906,1.906 0 0 0 -0.6,-0.343 1.1,1.1 0 0 1 0.239,0.951 c -0.009,0.069 -0.153,0.456 -0.1,0.393 a 0.992,0.992 0 0 0 0.116,0.5 1.588,1.588 0 0 1 0.158,-0.593 2.871,2.871 0 0 0 2.124,-1.557 7.185,7.185 0 0 0 -1.153,-0.945 L 53.176,9.376 A 0.1,0.1 0 0 0 53.126,9.201 C 52.655,9.115 51.369,8.716 48.88,6.88 A 2.617,2.617 0 0 0 47.295,6.366 2.816,2.816 0 0 0 46.359,6.524 Z m 8.806,3.15 -0.211,2.081 c -0.006,0.08 0.136,0.065 0.139,0.062 0.003,-0.003 0.039,5.517 0.054,5.525 0,0 0.25,-0.064 0.268,-0.066 a 47.906,47.906 0 0 1 0.1,-5.158 0.984,0.984 0 0 1 0.623,0.544 l -0.04,-0.76 -0.005,-0.1 c 0.06,0.013 0.2,0.058 0.184,-0.055 L 56.779,9.807 A 1.267,1.267 0 0 1 57.13,9.141 1.457,1.457 0 0 1 57.696,8.802 22.635,22.635 0 0 0 56.55,1.102 l -0.144,-0.3 a 13.061,13.061 0 0 0 -0.626,2.077 23.31,23.31 0 0 0 -0.637,5.905 1.324,1.324 0 0 1 0.933,1.063 z m 0,-6.9 C 56.19,2.459 56.3,2.043 56.403,1.704 l 0.057,7.627 c 0.02,0.572 0.006,1.413 0.012,2 -0.015,-0.168 -0.005,0.359 -0.009,0.343 -0.086,-0.018 -0.3,0.095 -0.312,-0.045 l 0.126,-1.5 c -0.01,-0.023 0.024,-0.763 -0.15,-0.961 a 1.493,1.493 0 0 0 -0.685,-0.6 23.18,23.18 0 0 1 0.631,-5.617 z m -5.058,13.995 c 0.025,0 0.051,0.038 0.069,0.02 0.23,-0.2 0.163,-0.58 -0.192,-0.471 -0.3,0.139 -0.55,0.479 -0.95,0.37 a 0.429,0.429 0 0 0 0.14,0.164 2.731,2.731 0 0 1 0.931,-0.075 z m 0.012,-6.062 c -0.277,-0.082 -0.594,-0.372 -0.863,-0.318 -0.406,0.293 -0.6,0.8 -1.71,0.708 a 2.675,2.675 0 0 0 1.794,-0.151 6.94,6.94 0 0 1 0.778,-0.231 z M 50.6,17.347 c 0.192,0.023 0.235,-0.085 0.334,-0.126 -0.21,-0.132 -0.811,0.028 -0.811,0.028 z m 1.318,-2.035 a 6.051,6.051 0 0 1 -1.3,-2.23 1.482,1.482 0 0 0 -0.3,0.295 l 0.19,-0.465 c -1.207,-0.36 -1.194,-0.311 -2.077,0.141 a 5.756,5.756 0 0 1 0.966,-0.093 c 0.163,0.039 0.344,0.111 0.059,0.089 -0.423,-0.032 -0.762,0.338 -1.147,0.252 -0.049,0 -0.147,-0.076 -0.06,0.023 a 0.748,0.748 0 0 0 0.866,0.186 0.212,0.212 0 0 0 0.25,0.293 0.39,0.39 0 0 0 0.315,-0.283 0.356,0.356 0 0 1 0,0.29 c -0.018,0.046 0,0.023 0.072,0.009 -0.03,0.231 0.133,0.374 0.47,0.531 q 0.759,0.441 0.391,0.631 -0.569,0.241 -0.128,0.681 a 0.561,0.561 0 0 1 0.746,0.323 1.2,1.2 0 0 0 0.685,-0.665 z m 15.142,26.99 v -2.485 l -0.285,0.224 -0.014,2.455 z m -0.054,-3.691 c 0,0.548 -0.169,0.666 -0.167,0.151 0.002,-0.515 -0.212,0.8 -0.212,0.8 l 0.595,-0.487 c 0,0 -0.214,-0.954 -0.215,-0.466 z m -9.7,-20.642 a 2.351,2.351 0 0 0 -0.549,-0.3 3.675,3.675 0 0 0 -0.542,0 0.986,0.986 0 0 1 -0.672,-0.12 c -0.02,0 -0.049,-0.007 -0.062,0.013 -0.079,0.114 0,0.24 0.08,0.329 a 0.772,0.772 0 0 0 0.652,0.293 c 0.3,0 0.6,-0.146 0.837,0.034 0.157,0.143 0.436,0.4 0.488,0.469 a 0.9,0.9 0 0 1 0.086,0.365 c 0,0 0.257,-0.15 0.1,-0.715 -0.071,-0.157 -0.275,-0.269 -0.416,-0.37 z m 9.91,21.249 c -0.351,0.334 -0.663,0.377 -0.568,0.69 0.088,1.223 0.006,1.983 0.021,3.213 l 0.023,-0.015 0.021,-3.242 c 0.26,-0.251 0.525,-0.262 0.505,-0.648 z M 36.731,8.318 c -0.405,0.366 -0.089,1.007 -0.064,1.481 a 6.2,6.2 0 0 1 2.612,-2.144 5.718,5.718 0 0 0 -2.229,2.081 2.738,2.738 0 0 0 -0.22,0.542 l 0.012,-0.017 a 5.143,5.143 0 0 1 1.95,-1.654 4.222,4.222 0 0 0 -1.477,2.391 8.307,8.307 0 0 0 0.7,1.331 c 0.158,0.216 0.373,0.5 0.558,0.735 l 0.424,-0.315 c -0.178,-3.558 0.281,-5.065 2.2,-5.069 -1.666,2.1 -2.24,4.1 -0.547,6.5 a 2.566,2.566 0 0 1 -0.157,3.827 4.767,4.767 0 0 0 1.513,-1.255 1.845,1.845 0 0 1 -0.541,1.407 3.063,3.063 0 0 1 -0.5,0.423 2.412,2.412 0 0 0 -1.123,1.959 c -0.018,0.183 -0.005,0.39 -0.007,0.621 -0.006,0.847 -1.031,1.155 -1.031,1.155 l -0.217,0.062 a 3.947,3.947 0 0 0 0.927,-0.175 1.5,1.5 0 0 0 1.065,-0.933 c 0,0 0,0.039 0.007,0.107 0.023,0.958 0.676,3.382 2.188,3.6 -0.54,-0.721 -1.044,-2.521 -0.191,-3.44 0.594,-0.7 1.5,-1.167 1.857,-2.062 a 2.861,2.861 0 0 0 1.8,1.1 3.572,3.572 0 0 1 -1.023,-1.538 4.763,4.763 0 0 1 -0.244,-1.313 2.957,2.957 0 0 0 0.165,-1.016 3.136,3.136 0 0 1 0.711,-1.826 3.982,3.982 0 0 0 -0.272,1.729 l 0.253,-0.4 a 4.516,4.516 0 0 0 0.073,1 1.714,1.714 0 0 0 0.768,1.02 2.392,2.392 0 0 0 0.447,0.24 v 0.308 a 5.8,5.8 0 0 0 0.425,1.719 L 47.6,20.222 a 2.312,2.312 0 0 1 0.3,-1.5 c 0.311,-0.04 0.8,0.268 1.115,0.284 1.085,0.189 1.374,0.155 1.8,-0.169 a 1.638,1.638 0 0 1 -0.471,0.082 c -1.755,0.028 -4.091,-1.922 -3.09,-3.568 a 1.383,1.383 0 0 0 0.226,-1.026 2.157,2.157 0 0 1 -0.088,-0.671 1.982,1.982 0 0 1 0.391,-1.356 1.714,1.714 0 0 1 0.673,-0.428 1.942,1.942 0 0 0 -0.9,0.311 c -0.49,0.346 -0.67,1.1 -1.195,1.366 a 3.1,3.1 0 0 1 -1.761,0.459 3.135,3.135 0 0 0 0.312,-0.072 2.36,2.36 0 0 0 1.464,-1.026 c 0.774,-1.225 1.051,-1.554 1.643,-1.914 a 3.018,3.018 0 0 1 1.023,-0.395 2.072,2.072 0 0 1 0.629,-0.04 0.786,0.786 0 0 1 0.208,-0.143 5.831,5.831 0 0 0 -1.107,-0.231 c -1.953,-0.059 -2.972,0.464 -4.94,1.955 a 10.432,10.432 0 0 1 3.58,-1.406 c -2.533,0.837 -3.564,1.58 -4.491,2.852 a 8.039,8.039 0 0 0 -0.918,1.892 C 41.579,11.191 47.067,9.824 47.626,9.518 47.865,9.329 47.486,9.218 46.777,9.006 46.03,8.761 43.455,8.39 44.615,7.384 a 4.257,4.257 0 0 1 0.974,-0.576 4.246,4.246 0 0 0 -3.487,2.205 1.919,1.919 0 0 1 -0.04,-1.547 5.726,5.726 0 0 1 3.194,-1.5 6.989,6.989 0 0 0 -2.874,0.815 4.136,4.136 0 0 1 2.635,-1.223 c -0.155,-1.04 -0.647,-2.835 1.8,-4.31 l -0.275,-1.12 c -2.879,1.551 -2.74,3.578 -2.393,4.66 a 7.182,7.182 0 0 1 -1.008,-2.224 3.638,3.638 0 0 0 0.561,2.243 3.7,3.7 0 0 1 -1.856,-4.02 9.3,9.3 0 0 1 1.7,-0.54 2.2,2.2 0 0 0 0.014,1.25 1.27,1.27 0 0 1 0.728,-1.385 q 0.46,-0.066 0.95,-0.1 a 9.194,9.194 0 0 0 -4.414,1.01 2.463,2.463 0 0 0 0,0.283 5.239,5.239 0 0 0 1.88,3.318 7.234,7.234 0 0 1 -2.527,-2.889 c -0.09,-0.555 -0.58,0.161 -0.848,0.308 0.053,0.085 0.107,0.167 0.167,0.253 A 11.7,11.7 0 0 0 42.129,4.871 10.039,10.039 0 0 1 39.185,2.62 C 38.922,2.083 38.611,2.838 38.347,3.066 A 6.185,6.185 0 0 0 41.04,5.252 7.6,7.6 0 0 1 38.289,3.697 c -0.4,-0.54 -0.636,0.542 -0.878,0.84 0.66,0.251 1.494,0.556 2.154,0.734 -0.674,-0.129 -1.615,-0.32 -2.319,-0.379 -0.1,0.392 -0.842,1.6 -0.1,1.272 a 11.874,11.874 0 0 1 3.529,-0.165 11.426,11.426 0 0 0 -3.62,0.524 C 36.408,6.59 36.64,7.46 36.536,7.943 a 8.005,8.005 0 0 1 2.486,-1.056 7.066,7.066 0 0 0 -2.289,1.427 z m 7.9,4.723 c 0.076,-0.04 0.156,-0.08 0.244,-0.116 a 3.532,3.532 0 0 0 1.187,-0.8 1.764,1.764 0 0 1 -1.068,1.169 8.84,8.84 0 0 0 -0.686,0.319 2.44,2.44 0 0 0 -0.688,0.527 2.019,2.019 0 0 1 1.017,-1.103 z m -1.5,3.8 a 3.465,3.465 0 0 1 2.047,-2.2 5.953,5.953 0 0 0 -1.2,2.039 4.517,4.517 0 0 1 -0.307,0.8 4.4,4.4 0 0 1 -1.882,1.915 5.357,5.357 0 0 0 1.352,-2.554 z m 13.221,2.247 a 3.924,3.924 0 0 1 1.23,0.584 c 0.057,0.04 0.061,-0.255 0.053,-0.278 -0.008,-0.023 -0.056,-0.227 -0.2,-0.244 a 1.237,1.237 0 0 1 -0.512,-0.349 c -0.094,-0.113 -0.21,-0.166 -0.225,-0.136 -0.015,0.03 -0.077,0.076 -0.359,0.066 a 1.041,1.041 0 0 0 -0.69,0.2 0.392,0.392 0 0 1 -0.223,0.127 0.86,0.86 0 0 0 -0.129,0.729 1.494,1.494 0 0 1 1.065,-0.699 z m -1.078,1.782 a 2.17,2.17 0 0 0 0.376,0.691 0.985,0.985 0 0 0 0.434,0.458 c 0,0.308 0.006,0.754 0.008,1.065 l 0.016,2.2 0.207,-0.576 c 0.021,-0.6 0,-3.234 0,-3.316 a 1.791,1.791 0 0 0 0.7,0.319 c 0.02,0 0.048,3.707 0.048,3.838 a 14.659,14.659 0 0 0 1.121,-1.1 14.873,14.873 0 0 0 -0.427,-2.272 c -0.143,-0.308 -0.4,-0.795 -0.537,-1.02 a 0.878,0.878 0 0 0 -0.375,-0.32 1.225,1.225 0 0 1 -0.709,-0.422 c -0.081,-0.058 -0.164,0.039 -0.416,0.075 -0.252,0.036 -0.2,-0.191 -0.2,-0.191 0.1,0.025 0.563,-0.37 0.682,-0.39 a 3.718,3.718 0 0 1 0.827,0.214 c 0.029,0.023 0.179,-0.028 0.179,-0.028 a 7.282,7.282 0 0 0 -1.2,-0.594 c -0.065,-0.04 -0.4,0.3 -0.493,0.448 a 0.141,0.141 0 0 1 -0.224,0.04 1.758,1.758 0 0 0 -0.006,0.881 z m 7.025,13.289 -1.388,2.279 -2.276,4.72 1.624,-2.345 z m -14.8,6.609 v 0.082 a 1.958,1.958 0 0 1 0.971,0.22 1.816,1.816 0 0 0 -0.96,-0.302 z m -3.213,0.567 a 0.325,0.325 0 0 1 0.247,0.336 h 0.074 a 0.3,0.3 0 0 0 -0.31,-0.337 z m 1.559,-0.624 a 0.12,0.12 0 1 0 -0.238,0 0.125,0.125 0 1 0 0.249,-10e-4 z m 22.25,-3.04 c 0,0.578 -0.2,0.72 -0.2,0.178 0,-0.542 -0.246,0.858 -0.246,0.858 l 0.7,-0.574 c 0,0 -0.243,-0.977 -0.243,-0.463 z m -23.045,3.77 h 1.038 v -0.1 h -1.103 z m -1.665,-19.85 a 2.832,2.832 0 0 0 -0.513,0.523 2.4,2.4 0 0 0 1.534,0.922 c 0.04,0.006 0.084,0.012 0.129,0.014 a 2.259,2.259 0 0 1 -1.15,-1.459 z m -7.014,19.567 -2.276,-4.72 -1.388,-2.279 2.04,4.654 z m 27.8,-3.341 h -0.436 v 0.613 h 0.436 z m -2.74,0.613 h 0.436 v -0.613 h -0.436 z m -19.9,-9.992 c 6.432,1.331 8,-3.835 7.651,-5.589 0.4,2.113 -0.012,5.509 -3.887,6.662 0.562,0.02 1.254,0.28 1.779,0.034 1.857,-1.027 3.12,-3.783 2.747,-6.669 a 9.124,9.124 0 0 1 0.212,2.233 c -0.017,1.381 -0.483,2.385 -1.666,4.519 a 14.688,14.688 0 0 0 1.88,-0.244 10.609,10.609 0 0 0 0.538,-5.692 7.579,7.579 0 0 1 0.537,5.435 c 0.344,-0.1 0.684,-0.2 1.018,-0.321 a 6.417,6.417 0 0 0 -0.3,-4.083 6.723,6.723 0 0 1 0.907,3.848 q 0.285,-0.117 0.564,-0.247 c 0.009,-0.228 0.015,-0.553 0.015,-1.021 0,-1.926 -0.6,-3.076 -1.3,-3.536 a 1.244,1.244 0 0 0 -0.649,-0.362 c -0.08,-0.219 -0.545,-0.6 -0.887,-0.419 -0.255,-0.33 -0.9,-0.23 -0.9,-0.229 -0.184,-0.373 -1.19,-0.491 -1.271,-0.416 0.611,1.442 0.489,2.731 -1.671,4.309 -1.787,1.269 -8.774,0.408 -11.15,-2.812 a 14.694,14.694 0 0 0 5.831,4.6 z m -4.294,-16.9 a 6.536,6.536 0 0 0 1.119,1.663 7.045,7.045 0 0 1 -1.079,-2 q -0.029,0.17 -0.043,0.341 z m 13.168,30.128 h 0.074 a 0.324,0.324 0 0 1 0.247,-0.336 0.3,0.3 0 0 0 -0.323,0.34 z m -2.773,-1.678 a 0.121,0.121 0 1 0 -0.238,0 0.121,0.121 0 1 0 0.235,0.004 z m -0.119,0.858 v -0.082 a 1.815,1.815 0 0 0 -0.971,0.3 1.958,1.958 0 0 1 0.968,-0.214 z m 1.892,-0.14 a 0.121,0.121 0 1 0 -0.238,0 0.121,0.121 0 1 0 0.235,0.004 z m -0.481,0.73 h 1.038 l 0.077,-0.1 H 48.924 Z M 70.54,40.305 h -0.369 l -0.24,0.158 0.023,0.046 0.229,-0.151 H 70.54 Z M 32.562,44.671 H 33.3 l 0.108,-0.3 h -0.955 z m 46.492,-8.943 c 0,0.752 -0.8,0.725 -0.8,0.012 0,-0.713 -1,0.863 -1,0.863 h 2.84 c 0,0 -1.042,-1.54 -1.042,-0.871 z m -8.514,5.026 h -0.363 l -0.246,0.153 0.022,0.046 0.23,-0.146 h 0.357 z m 3.492,-5.026 c 0,0.752 -0.8,0.725 -0.8,0.012 0,-0.713 -1,0.863 -1,0.863 h 2.841 c 0,0 -1.043,-1.54 -1.043,-0.871 z m -4.1,5.623 0.022,0.046 0.229,-0.142 h 0.357 v -0.053 h -0.363 z m 0.608,-1.494 h -0.369 l -0.24,0.163 0.024,0.045 0.229,-0.155 h 0.357 z m 3.77,6.858 H 73.7 v 1.635 h 0.61 z m -0.861,-16.1 h 0.764 v -1.073 h -0.764 z m 7.072,-20.1 c 0.126,0.2 0.319,0.454 0.434,0.6 0.115,0.146 0.06,0.244 -0.056,0.264 -0.25,0.081 -0.323,0.346 -0.083,0.634 0.2,0.307 0.8,0.527 0.972,0.743 0,0.167 -0.281,0.168 -0.27,0.506 0,0.37 0.423,0.48 0.531,0.495 0.108,0.015 0.34,-0.115 0.393,-0.066 0.027,0.025 -0.048,0.094 -0.125,0.18 -0.348,0.294 -0.034,0.6 0.3,0.621 0.283,0.019 0.651,-0.345 0.5,0.1 0,0.108 0.2,0.273 0.263,0.362 a 1.816,1.816 0 0 1 0.1,0.346 c 0.055,0.135 0.319,0.3 0.388,0.065 a 8.474,8.474 0 0 0 -1.7,-3.927 c -0.085,-0.084 0.012,0.009 0.046,0.038 a 8.546,8.546 0 0 1 1.834,3.737 5.07,5.07 0 0 0 0.088,-2.217 c -0.15,-0.122 -0.125,0.22 -0.222,0.131 -0.024,-0.022 0,-0.135 0.052,-0.3 0.146,-0.557 0.442,-1.388 0,-1.867 -0.27,-0.239 -0.366,0.283 -0.526,0.332 -0.156,-0.185 -0.264,-2.3 -1.2,-1.937 -0.18,0.068 -0.051,0.294 -0.131,0.436 -0.025,0.045 -0.22,-0.12 -0.478,-0.23 -0.976,-0.459 -1.779,-0.032 -1.112,0.962 z m -1.8,35.143 a 0.748,0.748 0 0 0 -0.67,0.81 h 1.334 A 0.748,0.748 0 0 0 78.72,45.666 Z m 0.6,-29.933 c 0,0.375 0.41,0.606 0.7,0.75 0.173,0.077 0.4,0.159 0.228,0.319 a 0.3,0.3 0 0 0 0.121,0.517 c 0.361,0.176 1,-0.09 0.942,0.149 -0.04,0.112 -0.138,0.211 -0.078,0.339 a 0.407,0.407 0 0 0 0.531,0.122 c 0.085,-0.04 0.223,-0.259 0.277,-0.243 0.027,0.008 -0.009,0.1 -0.044,0.209 -0.157,0.367 0.1,0.52 0.4,0.35 0.2,-0.112 0.388,-0.593 0.4,-0.168 0.029,0.084 0.232,0.1 0.305,0.139 0.073,0.039 0.151,0.18 0.184,0.2 0.188,0.11 0.359,-0.021 0.291,-0.223 a 5.03,5.03 0 0 0 -2.379,-1.967 l -0.037,-0.009 a 1.665,1.665 0 0 1 0.3,0.08 5.356,5.356 0 0 1 2.217,1.77 4.618,4.618 0 0 0 -0.482,-1.561 c -0.037,-0.063 -0.069,-0.1 -0.089,-0.105 -0.146,-0.014 -0.028,0.224 -0.126,0.207 -0.142,-0.423 -0.013,-1.434 -0.595,-1.624 -0.271,-0.044 -0.193,0.4 -0.293,0.507 -0.072,0.02 -0.241,-0.339 -0.331,-0.443 -0.246,-0.371 -0.737,-0.941 -1.114,-0.471 -0.115,0.138 0.046,0.261 0.026,0.412 -0.006,0.048 -0.2,0.008 -0.42,0.036 -0.389,0.059 -0.93,0.235 -0.931,0.716 z m -5.409,-8 c -0.112,0.078 -0.386,-0.046 -0.381,0.13 0.071,0.861 1.718,0.987 2.272,1.326 -0.006,0.141 -0.475,0.162 -0.184,0.467 a 1.138,1.138 0 0 0 0.536,0.3 c 0.431,0.155 1.049,0.036 1.429,0.147 0.085,0.12 -0.223,-0.01 -0.1,0.171 a 9.806,9.806 0 0 0 1.919,0.843 C 78.219,9.958 76.842,9.022 75.63,7.916 c 1,0.9 2.172,1.6 3.174,2.51 a 6.5,6.5 0 0 0 0.746,0.6 0.09,0.09 0 0 0 0.119,-0.075 c -0.01,-0.3 -0.229,-0.348 -0.4,-0.562 C 79.2,10.289 79.076,10.024 78.98,9.98 78.884,9.936 78.827,9.968 78.78,9.898 78.733,9.828 78.932,9.638 78.933,9.481 78.96,9.221 78.702,8.735 78.376,8.923 78.042,9.083 78.265,8.817 78.286,8.628 A 0.8,0.8 0 0 0 77.267,7.886 C 77.191,7.931 77.162,7.986 77.083,7.944 76.93,7.86 76.653,7.203 76.1,6.771 75.762,6.523 75.424,6.403 75.327,6.703 c 0,0.112 -0.091,0.144 -0.309,0.009 A 5.665,5.665 0 0 0 73.568,5.98 c -1,-0.232 -0.715,0.593 -0.069,1.279 0.216,0.262 0.453,0.453 0.417,0.478 z m 4.326,21.809 h -0.764 v 1.073 h 0.764 z m -11.949,6.949 4.377,-4.717 3.029,-9.256 -2.1,2.674 -2.542,5.416 h -0.214 l -0.454,1.207 0.518,-1.027 0.054,0.052 -0.559,1.191 -0.023,-0.028 h -0.4 l -0.459,1.189 -0.105,-0.128 h -0.4 l -0.461,1.195 0.518,-1.027 0.411,0.393 h 0.169 l -0.136,0.289 v 0.907 l -0.455,0.559 V 33.93 l 0.087,-0.218 0.277,0.043 -0.32,-0.249 -0.284,0.633 0.15,-0.073 v 1 z m 2.353,-4.323 0.385,-0.891 0.04,0.006 v 1.9 l -0.425,0.522 z m -0.376,1.846 -0.309,0.425 v -1.452 h 0.009 l 0.132,-0.332 0.168,0.026 z m -0.758,-0.834 0.515,-1.022 0.208,0.2 -0.077,0.164 -0.1,-0.076 -0.285,0.633 0.157,-0.076 -0.206,0.439 z m 3.026,6.228 h -0.369 l -0.223,0.158 0.024,0.044 0.212,-0.15 h 0.356 z m 0,-4.486 h -0.371 l -0.224,0.205 0.028,0.041 0.212,-0.194 h 0.355 z m 0,-0.448 h -0.371 l -0.224,0.2 0.028,0.041 0.212,-0.193 h 0.355 z m 0,4.486 h -0.369 l -0.24,0.172 0.024,0.044 0.229,-0.164 h 0.356 z m 0,-3.589 h -0.371 l -0.224,0.205 0.028,0.041 0.212,-0.193 h 0.355 z m -2.359,6.184 v -2.623 l -0.332,0.262 v 2.581 z m 0.179,-3.27 -0.694,0.565 a 1.912,1.912 0 0 1 0.029,0.377 l 0.049,0.141 v 3.068 l 0.026,-0.016 v -3.4 c 0.307,-0.284 0.611,-0.31 0.593,-0.723 z m 0.935,-1.631 c 0,0.611 -0.218,0.769 -0.218,0.2 0,-0.569 -0.271,0.917 -0.271,0.917 l 0.771,-0.633 c 0,0 -0.279,-1.016 -0.279,-0.471 z m 0.08,4.111 v -2.775 l -0.367,0.289 V 41 Z m 0.2,-3.466 -0.766,0.623 a 1.934,1.934 0 0 1 0.032,0.4 l 0.054,0.147 v 3.242 l 0.028,-0.018 v -3.6 c 0.347,-0.316 0.668,-0.341 0.652,-0.783 z m 0.969,0.763 h -0.37 l -0.224,0.169 0.025,0.044 0.212,-0.16 h 0.356 z m 0,0.449 h -0.369 l -0.224,0.164 0.024,0.044 0.212,-0.157 h 0.356 z m 0,-0.9 h -0.369 l -0.223,0.156 0.024,0.044 0.212,-0.148 h 0.356 z m 0,-1.794 h -0.371 l -0.224,0.2 0.028,0.041 0.212,-0.193 h 0.355 z m 0,0.449 h -0.371 l -0.224,0.2 0.028,0.041 0.212,-0.191 h 0.355 z m 0,0.448 h -0.369 l -0.24,0.176 0.024,0.044 0.229,-0.168 h 0.356 z m 0,0.448 h -0.369 l -0.24,0.178 0.024,0.044 0.229,-0.169 h 0.356 z"
         id="path1" />
      <g
         data-name="Raggruppa 276"
         id="g5">
        <path
           data-name="Tracciato 264"
           d="m 39.732,67.884 -1.37,0.689 v -0.992 l 1.452,-0.755 h 0.9 v 5.743 H 39.73 Z"
           id="path2" />
        <path
           data-name="Tracciato 265"
           d="m 46.28,71.051 c 0,0.919 -0.779,1.641 -2.043,1.641 -1.337,0 -2.076,-0.722 -2.076,-1.747 a 1.615,1.615 0 0 1 0.895,-1.428 1.382,1.382 0 0 1 -0.7,-1.239 c 0,-0.927 0.706,-1.575 1.846,-1.575 a 1.659,1.659 0 0 1 1.879,1.617 1.581,1.581 0 0 1 -0.812,1.3 1.554,1.554 0 0 1 1.011,1.431 z m -0.993,-0.033 c 0,-0.328 -0.188,-0.607 -0.747,-0.837 l -0.632,-0.262 a 1.062,1.062 0 0 0 -0.771,0.968 c 0,0.583 0.427,0.927 1.1,0.927 0.673,0 1.05,-0.377 1.05,-0.796 z m -2,-2.715 a 0.869,0.869 0 0 0 0.607,0.746 l 0.55,0.222 a 1.1,1.1 0 0 0 0.714,-0.911 c 0,-0.443 -0.312,-0.812 -0.952,-0.812 -0.609,-0.001 -0.921,0.355 -0.921,0.755 z"
           id="path3" />
        <path
           data-name="Tracciato 266"
           d="m 51.341,70.805 a 1.915,1.915 0 0 1 -2.067,1.887 3.988,3.988 0 0 1 -1.748,-0.419 v -1 a 3.507,3.507 0 0 0 1.715,0.492 0.969,0.969 0 0 0 1.05,-0.959 0.982,0.982 0 0 0 -1.107,-0.969 1.536,1.536 0 0 0 -0.87,0.263 l -0.706,-0.517 0.123,-2.757 h 3.364 v 0.918 h -2.486 l -0.074,1.395 a 2.019,2.019 0 0 1 0.952,-0.2 1.8,1.8 0 0 1 1.854,1.866 z"
           id="path4" />
        <path
           data-name="Tracciato 267"
           d="M 52.628,72.396 V 71.42 a 3.308,3.308 0 0 0 1.395,0.353 c 0.943,0 1.4,-0.517 1.4,-1.748 a 1.924,1.924 0 0 1 -1.321,0.468 1.763,1.763 0 0 1 -1.813,-1.9 1.9,1.9 0 0 1 2,-1.9 c 1.346,0 2.133,1.034 2.133,2.79 0,2.388 -0.878,3.2 -2.4,3.2 a 3.675,3.675 0 0 1 -1.394,-0.287 z m 2.757,-3.257 c 0,-1 -0.37,-1.551 -1.1,-1.551 a 1.022,1.022 0 0 0 0,2.043 1.539,1.539 0 0 0 1.1,-0.492 z"
           id="path5" />
      </g>
    </g>
  </g>
</svg>
